<svg width="35" height="35" viewBox="0 0 35 35" fill="none" xmlns="http://www.w3.org/2000/svg">
<path d="M8.038 11.0005H1.21245C0.909521 11.0005 0.664062 11.2461 0.664062 11.5489V33.4765C0.664062 33.7794 0.909521 34.0248 1.21245 34.0248H8.038C8.34093 34.0248 8.58639 33.7794 8.58639 33.4765V11.5489C8.58639 11.2461 8.34093 11.0005 8.038 11.0005Z" fill="white"/>
<path d="M4.62901 0.0998535C2.14548 0.0998535 0.125 2.11814 0.125 4.59893C0.125 7.08082 2.14548 9.09987 4.62901 9.09987C7.11057 9.09987 9.12941 7.08071 9.12941 4.59893C9.12952 2.11814 7.11057 0.0998535 4.62901 0.0998535Z" fill="white"/>
<path d="M25.4 10.4556C22.6586 10.4556 20.6321 11.634 19.403 12.9731V11.5489C19.403 11.2461 19.1575 11.0006 18.8546 11.0006H12.3179C12.015 11.0006 11.7695 11.2461 11.7695 11.5489V33.4765C11.7695 33.7795 12.015 34.0249 12.3179 34.0249H19.1286C19.4315 34.0249 19.6769 33.7795 19.6769 33.4765V22.6275C19.6769 18.9716 20.67 17.5473 23.2184 17.5473C25.9939 17.5473 26.2145 19.8306 26.2145 22.8156V33.4766C26.2145 33.7796 26.4599 34.025 26.7629 34.025H33.576C33.879 34.025 34.1244 33.7796 34.1244 33.4766V21.449C34.1244 16.0128 33.0879 10.4556 25.4 10.4556Z" fill="white"/>
</svg>
