<svg width="35" height="35" viewBox="0 0 35 35" fill="none" xmlns="http://www.w3.org/2000/svg">
<path d="M23.7736 15.3562C21.5723 15.3562 21.2676 17.55 21.2676 17.55H25.9445C25.9445 17.55 25.975 15.3562 23.7736 15.3562Z" fill="white"/>
<path d="M13.1633 17.5501H9.01953V21.3587H12.9576C13.5518 21.3434 14.6639 21.1758 14.6639 19.5077C14.6639 17.5272 13.1633 17.5501 13.1633 17.5501Z" fill="white"/>
<path d="M17.0625 0C7.64004 0 0 7.64004 0 17.0625C0 26.485 7.64004 34.125 17.0625 34.125C26.485 34.125 34.125 26.485 34.125 17.0625C34.125 7.64004 26.485 0 17.0625 0ZM20.6578 10.4813H26.5307V12.2332H20.6578V10.4813ZM17.6871 19.6828C17.6871 24.0246 13.1625 23.8875 13.1625 23.8875H5.75859V9.64336H13.1625C15.4172 9.64336 17.192 10.885 17.192 13.4367C17.192 15.9885 15.0211 16.1484 15.0211 16.1484C17.8852 16.1484 17.6871 19.6828 17.6871 19.6828ZM28.6711 19.4467H21.29C21.29 22.0898 23.7961 21.9223 23.7961 21.9223C26.165 21.9223 26.0812 20.3912 26.0812 20.3912H28.5873C28.5873 24.4588 23.7123 24.177 23.7123 24.177C17.8699 24.177 18.2432 18.7307 18.2432 18.7307C18.2432 18.7307 18.2355 13.2615 23.7123 13.2615C29.4785 13.2691 28.6711 19.4467 28.6711 19.4467Z" fill="white"/>
<path d="M14.1688 13.6577C14.1688 12.1799 13.1633 12.1799 13.1633 12.1799H9.01953V15.3563H12.9043C13.5746 15.3563 14.1688 15.1354 14.1688 13.6577Z" fill="white"/>
</svg>
