<svg width="28" height="27" viewBox="0 0 28 27" fill="none" xmlns="http://www.w3.org/2000/svg">
<path d="M13.875 2.25C12.3976 2.25 10.9347 2.54099 9.56981 3.10636C8.2049 3.67172 6.96471 4.50039 5.92005 5.54505C3.81026 7.65483 2.625 10.5163 2.625 13.5C2.625 18.4725 5.85375 22.6912 10.32 24.1875C10.8825 24.2775 11.0625 23.9287 11.0625 23.625V21.7237C7.94625 22.3988 7.2825 20.2162 7.2825 20.2162C6.765 18.9112 6.03375 18.5625 6.03375 18.5625C5.01 17.865 6.1125 17.8875 6.1125 17.8875C7.2375 17.9662 7.83375 19.0462 7.83375 19.0462C8.8125 20.7563 10.4662 20.25 11.1075 19.98C11.2087 19.2488 11.5013 18.7537 11.8162 18.4725C9.31875 18.1912 6.6975 17.2238 6.6975 12.9375C6.6975 11.6888 7.125 10.6875 7.85625 9.88875C7.74375 9.6075 7.35 8.4375 7.96875 6.91875C7.96875 6.91875 8.91375 6.615 11.0625 8.06625C11.9513 7.81875 12.9187 7.695 13.875 7.695C14.8313 7.695 15.7987 7.81875 16.6875 8.06625C18.8363 6.615 19.7812 6.91875 19.7812 6.91875C20.4 8.4375 20.0063 9.6075 19.8938 9.88875C20.625 10.6875 21.0525 11.6888 21.0525 12.9375C21.0525 17.235 18.42 18.18 15.9113 18.4613C16.3163 18.81 16.6875 19.4963 16.6875 20.5425V23.625C16.6875 23.9287 16.8675 24.2887 17.4412 24.1875C21.9075 22.68 25.125 18.4725 25.125 13.5C25.125 12.0226 24.834 10.5597 24.2686 9.19481C23.7033 7.8299 22.8746 6.58971 21.83 5.54505C20.7853 4.50039 19.5451 3.67172 18.1802 3.10636C16.8153 2.54099 15.3524 2.25 13.875 2.25Z" fill="white"/>
</svg>
