<svg width="36" height="35" viewBox="0 0 36 35" fill="none" xmlns="http://www.w3.org/2000/svg">
<g clip-path="url(#clip0_115_337)">
<path d="M28.9217 0H6.37506C2.961 0 0.193359 2.83858 0.193359 6.34015V28.5699C0.193359 32.0714 2.961 34.91 6.37506 34.91H28.9217C32.3357 34.91 35.1034 32.0714 35.1034 28.5699V6.34015C35.1034 2.83858 32.3357 0 28.9217 0Z" fill="#001E36"/>
<path d="M8.05469 24.4813V9.13256C8.05469 9.02131 8.10107 8.96464 8.19521 8.96464C8.4442 8.96464 8.67272 8.96464 9.0138 8.95275C9.35488 8.94085 9.72802 8.93666 10.1264 8.92896L11.3911 8.90447C11.8359 8.89654 12.2768 8.89258 12.7138 8.89258C13.9003 8.89258 14.9008 9.04463 15.7153 9.34874C16.4475 9.60331 17.1153 10.0218 17.6704 10.5738C18.141 11.0526 18.5046 11.6305 18.7359 12.2676C18.9547 12.888 19.0653 13.5431 19.0626 14.2029C19.0626 15.4846 18.7739 16.5415 18.1963 17.3736C17.6147 18.2093 16.7974 18.8422 15.8545 19.1871C14.8708 19.5635 13.7773 19.6908 12.5753 19.6908C12.2343 19.6908 11.99 19.6873 11.8495 19.6789C11.709 19.6706 11.4982 19.6671 11.2172 19.6671V24.4589C11.2207 24.4838 11.2194 24.5091 11.2134 24.5335C11.2074 24.5578 11.1967 24.5807 11.182 24.6008C11.1673 24.6209 11.1488 24.6378 11.1277 24.6506C11.1066 24.6633 11.0832 24.6717 11.0589 24.6751C11.0415 24.6779 11.0238 24.6779 11.0064 24.6751H8.21841C8.10653 24.673 8.05469 24.6093 8.05469 24.4813ZM11.2172 11.8472V16.8531C11.42 16.8694 11.6074 16.8774 11.7793 16.8769H12.5521C13.1208 16.8749 13.6858 16.7824 14.2268 16.6026C14.6906 16.4619 15.1052 16.1875 15.4213 15.812C15.7255 15.444 15.8777 14.931 15.8777 14.2728C15.8895 13.8081 15.7711 13.3497 15.5366 12.9519C15.2908 12.5671 14.9354 12.2693 14.5188 12.099C13.9757 11.8827 13.3957 11.7806 12.8134 11.7989C12.4382 11.7989 12.1065 11.8029 11.8181 11.8108C11.5298 11.8187 11.3306 11.8308 11.2206 11.8472H11.2172Z" fill="#31A8FF"/>
<path d="M28.1171 15.9425C27.677 15.7103 27.2082 15.5406 26.7235 15.438C26.1895 15.3122 25.6436 15.2477 25.0958 15.2456C24.7996 15.2375 24.5038 15.2741 24.2179 15.3541C24.0357 15.3955 23.8737 15.5018 23.7608 15.6542C23.6845 15.7761 23.6441 15.918 23.6442 16.0628C23.6483 16.2033 23.6978 16.3383 23.7847 16.4469C23.9214 16.6111 24.0886 16.7457 24.2766 16.8429C24.6103 17.0267 24.9542 17.1902 25.3066 17.3327C26.0926 17.6027 26.8437 17.9696 27.5434 18.4255C28.0196 18.7343 28.4138 19.1593 28.6908 19.6625C28.9242 20.1397 29.0412 20.6679 29.0319 21.2017C29.0457 21.9057 28.8496 22.5972 28.4698 23.1838C28.0629 23.7787 27.4979 24.2414 26.8421 24.5166C26.13 24.8375 25.2509 24.9979 24.2049 24.9979C23.5408 25.0043 22.8778 24.9398 22.2267 24.8055C21.7135 24.709 21.214 24.5476 20.7396 24.3249C20.6883 24.2979 20.6455 24.2564 20.6164 24.2053C20.5873 24.1543 20.573 24.0957 20.5752 24.0366V21.4431C20.5722 21.4176 20.5761 21.3918 20.5865 21.3685C20.5968 21.3452 20.6132 21.3253 20.6338 21.3108C20.6539 21.2991 20.6771 21.2939 20.7001 21.296C20.7232 21.2981 20.745 21.3075 20.7628 21.3227C21.3236 21.6618 21.9326 21.909 22.5678 22.0552C23.1272 22.1993 23.7012 22.2758 24.2779 22.2833C24.8236 22.2833 25.2257 22.2113 25.484 22.0671C25.6003 22.0125 25.6986 21.9245 25.7671 21.8137C25.8356 21.703 25.8714 21.5742 25.8701 21.4431C25.8701 21.2346 25.753 21.0342 25.5188 20.8421C25.2846 20.6499 24.808 20.419 24.089 20.1494C23.3536 19.887 22.6565 19.5234 22.0166 19.0685C21.5589 18.7424 21.1819 18.3112 20.9156 17.8091C20.6848 17.3359 20.5678 16.813 20.5745 16.2839C20.5725 15.6466 20.743 15.0212 21.067 14.4774C21.4352 13.88 21.9639 13.4045 22.5896 13.1082C23.2763 12.7561 24.1349 12.58 25.1654 12.58C25.7691 12.5748 26.3722 12.6188 26.969 12.7115C27.4011 12.7685 27.8234 12.8862 28.2242 13.0614C28.256 13.0707 28.2853 13.0875 28.3096 13.1105C28.334 13.1334 28.3529 13.1619 28.3647 13.1936C28.3806 13.2521 28.3884 13.3126 28.3879 13.3734V15.7998C28.3898 15.8278 28.3845 15.8559 28.3725 15.8811C28.3606 15.9064 28.3423 15.9281 28.3197 15.9439C28.2881 15.9597 28.2534 15.9679 28.2182 15.9676C28.1831 15.9674 28.1485 15.9588 28.1171 15.9425Z" fill="#31A8FF"/>
</g>
<defs>
<clipPath id="clip0_115_337">
<rect width="34.91" height="34.91" fill="white" transform="translate(0.193359)"/>
</clipPath>
</defs>
</svg>
