<svg width="82" height="93" viewBox="0 0 82 93" fill="none" xmlns="http://www.w3.org/2000/svg">
<path d="M34.4893 48.9404C33.3437 49.7743 32.1981 50.544 31.0525 51.3779C29.5451 52.4683 27.9775 53.5587 26.4701 54.6492C25.2642 55.483 24.1186 56.3169 22.9127 57.2149C22.5509 57.4715 22.1891 57.728 21.8274 57.9846C21.4053 61.1918 20.4406 64.1423 19.3553 67.1571C19.3553 67.1571 19.4156 67.1571 19.4156 67.0929C16.8229 75.6881 13.8685 84.9889 8.01992 91.0183C7.47727 91.5315 7.29637 91.788 7.17578 92.6219C7.71843 92.8143 8.01986 92.8785 8.56252 92.6219C8.7434 92.4936 8.86402 92.3653 9.0449 92.3012C9.22579 92.1729 9.40669 92.0446 9.58757 91.9163C9.94934 91.5956 10.3714 91.339 10.7332 91.0183C10.9141 90.89 11.1552 90.6976 11.3361 90.5693C11.9391 90.1203 12.542 89.6713 13.145 89.2223C15.8582 87.298 18.692 85.4379 20.8627 82.6156C20.9833 82.4231 21.1038 82.2949 21.2244 82.1024C22.7318 80.1781 23.998 78.2538 25.0833 75.9447C25.1436 75.8164 25.2039 75.624 25.2642 75.4957C26.4098 72.9941 26.4098 72.9941 28.1583 67.5419C28.6407 66.0025 29.123 64.4631 29.6657 62.9878C30.0274 62.0256 30.2686 61.1276 30.5701 60.1655C30.6907 59.6523 30.8113 59.2675 30.9922 58.9468C31.0525 58.3695 31.2334 57.8563 31.5349 57.4715C31.5952 57.1507 31.7158 56.8942 31.8363 56.6376C32.2584 54.2002 33.2834 51.8269 34.1275 49.5819C34.2481 49.3253 34.3687 49.0687 34.4893 48.9404Z" fill="#90D9EF"/>
<path d="M62.9497 69.0174C62.407 67.2855 61.8643 65.5537 61.2614 63.8218C60.7187 62.0899 60.1158 60.3581 59.6335 58.6904C59.3923 57.9848 59.1511 57.2151 58.9702 56.5095C58.8497 56.1888 58.7291 55.8039 58.6688 55.4832L58.6084 55.6756L48.1172 50.2876C49.3834 52.9175 50.2275 56.0605 50.7098 58.9469C50.8907 59.1393 51.0716 59.4601 51.1922 59.7808C51.3731 60.4864 51.3731 60.4864 51.554 61.1278C51.6745 61.4485 51.6746 61.4485 51.7349 61.7692C52.0966 62.9879 52.5186 64.1425 52.8804 65.3612C53.0613 65.9385 53.2422 66.5158 53.4231 67.0931C54.629 70.8775 55.7746 74.7261 57.704 78.0616C57.7643 78.1899 57.8849 78.3823 57.9452 78.5106C58.6084 79.6652 59.2717 80.7556 60.1158 81.7177C60.2364 81.846 60.357 81.9743 60.4776 82.1667C62.6482 84.7325 64.9394 86.785 67.5321 88.581C68.0144 88.9659 68.5571 89.2866 69.0394 89.6715C69.4615 89.9922 69.8835 90.3129 70.3056 90.6336C70.5468 90.7619 70.7277 90.9543 70.9688 91.0826C71.2703 91.3392 71.2703 91.3392 71.5718 91.5316C71.7527 91.6599 71.9939 91.7882 72.1747 91.9806C72.8983 92.4938 73.5013 92.7504 74.3454 92.8786C74.4057 92.5579 74.466 92.2372 74.5262 91.9806C68.5571 86.9133 65.4821 77.0353 62.9497 69.0174Z" fill="#90D9EF"/>
<path d="M57.6423 52.4052C56.3761 48.4284 55.1099 44.4515 53.7834 40.5388C53.4216 39.5766 53.1202 38.5503 52.8187 37.5882C52.6378 37.0109 52.5173 36.4977 52.3364 35.9205C52.2158 35.5356 52.0952 35.2149 52.0349 34.83C51.2511 32.2643 50.4673 29.6986 49.6231 27.197C49.2011 25.9783 48.779 24.6954 48.4172 23.4125C48.3569 23.156 48.2363 22.8994 48.176 22.6428C47.4525 20.3978 46.729 18.1528 46.0054 15.9078C45.9451 15.7795 45.8848 15.5871 45.8848 15.4588C45.4627 14.1118 45.0407 12.7648 44.6186 11.4178C44.1966 10.0708 43.7745 8.72377 43.2922 7.37676C42.6289 5.38833 41.9657 3.39989 41.3024 1.34731C41.2421 1.15488 41.1818 0.962449 41.1215 0.77002H40.7598C40.5789 1.21902 40.5789 1.21902 40.398 1.79631C40.3377 2.05288 40.2171 2.30946 40.1568 2.56603C39.9759 3.14332 39.795 3.7206 39.6141 4.29789C39.1921 5.6449 38.77 6.9919 38.348 8.33891C37.745 10.0708 37.2024 11.7385 36.6598 13.4704C36.3583 14.4967 35.9965 15.4588 35.695 16.4851C35.6347 16.6775 35.5744 16.9341 35.5141 17.1265C34.7906 19.3715 34.1274 21.5524 33.4038 23.7974C33.2832 24.2464 33.1023 24.6313 32.9817 25.0803C32.4391 26.8121 31.8965 28.6081 31.2935 30.34C30.6303 32.3284 29.967 34.381 29.3037 36.4336C28.7008 38.2938 28.1581 40.1539 27.4949 42.0141C27.1934 42.9121 26.892 43.8101 26.5905 44.7722C26.3493 45.5419 26.1082 46.3116 25.867 47.0814C25.7464 47.5304 25.7464 47.5304 25.6258 47.9152C25.4449 48.4925 25.264 49.0057 25.0831 49.5829C24.9625 49.8395 24.9022 50.1602 24.7816 50.4168C24.7213 50.6734 24.6007 50.9941 24.5404 51.2507C24.239 52.0845 24.0581 52.9184 23.9375 53.8164C24.4802 53.624 24.9022 53.3032 25.4449 52.9184C26.5905 52.0845 27.7361 51.2507 28.8214 50.4809C29.2435 50.1602 29.6655 49.9037 30.0876 49.5829C31.0523 48.8774 31.9567 48.1718 32.9214 47.5945C33.1626 47.4662 33.4641 47.2738 33.7053 47.0814C35.2127 46.1192 35.7553 44.8363 36.2979 42.9121C36.4788 42.3348 36.5994 41.7575 36.7803 41.116C36.8406 40.8595 36.9612 40.6029 37.0215 40.4105C37.2627 39.7049 37.4436 38.9352 37.6847 38.2296C38.2274 36.4977 38.8304 34.7659 39.373 33.034C39.4936 32.7133 39.5539 32.4567 39.6745 32.136C39.7951 31.8794 39.8554 31.5587 39.976 31.3022C40.0363 31.0456 40.1568 30.789 40.2171 30.4683C40.4583 29.7627 40.6392 29.1213 40.7598 28.4157C40.82 28.1591 40.82 28.1591 40.82 27.9026H41.1819C41.3024 28.8006 41.5436 29.5703 41.7848 30.4683C41.8451 30.6607 41.9054 30.8531 41.9656 30.9814C42.1465 31.5587 42.3274 32.136 42.5083 32.7133C42.6289 33.0982 42.7495 33.483 42.8701 33.932C43.3524 35.4073 43.8348 36.9467 44.3172 38.422C44.5583 39.1917 44.7995 39.9615 45.0407 40.7312C45.523 42.3348 46.0657 43.8742 46.548 45.4778C46.6686 45.8626 46.8496 46.3116 46.9701 46.6965C47.0304 46.8248 47.0304 46.9531 47.0907 47.0814L57.7629 52.5335C57.7026 52.5977 57.7026 52.5335 57.6423 52.4052Z" fill="#90D9EF"/>
<path d="M44.0147 54.9712L37.2618 55.0353C39.3721 61.8987 33.5234 70.1731 33.5234 70.1731L39.4926 83.4507L39.7941 74.2141C39.4926 74.0858 39.2515 73.7651 39.0706 73.4444C38.6485 72.5464 38.95 71.456 39.6735 70.9428C40.3971 70.4297 41.3014 70.7504 41.7235 71.6484C42.1456 72.5464 41.8441 73.6368 41.1206 74.15L41.0603 74.2141L40.8191 83.8997C41.1809 81.5906 47.5721 70.4297 47.5721 70.4297C43.1103 64.0154 44.0147 54.9712 44.0147 54.9712Z" fill="#90D9EF"/>
<path d="M66.2612 57.1521L62.1009 54.3298L65.1759 64.4003L81.9981 76.5875C81.9981 76.5875 68.6127 23.028 51.5493 4.16992L47.4492 0.834473C47.5095 0.898616 67.4068 51.6358 66.2612 57.1521Z" fill="#90D9EF"/>
<path d="M19.8973 53.4312L15.7369 56.2535C14.5913 50.7372 34.5489 0 34.5489 0L30.4489 3.33544C13.3854 22.1935 0 75.753 0 75.753L16.8223 63.5658L19.8973 53.4312Z" fill="#90D9EF"/>
</svg>
