<svg width="132" height="132" viewBox="0 0 132 132" fill="none" xmlns="http://www.w3.org/2000/svg">
<g filter="url(#filter0_d_67_5003)">
<rect x="18" y="14" width="90" height="90" rx="45" fill="white" shape-rendering="crispEdges"/>
<g clip-path="url(#clip0_67_5003)">
<path d="M80.4374 32H45.5626C40.2813 32 36 36.3911 36 41.8078V76.1922C36 81.6089 40.2813 86 45.5626 86H80.4374C85.7187 86 90 81.6089 90 76.1922V41.8078C90 36.3911 85.7187 32 80.4374 32Z" fill="#330000"/>
<path d="M62.1669 64.4069H53.7985L52.0965 69.8312C52.074 69.9305 52.0181 70.0186 51.9385 70.0798C51.8589 70.141 51.7608 70.1715 51.6615 70.1658H47.4234C47.1813 70.1658 47.0968 70.0293 47.17 69.7564L54.4151 48.3518C54.4855 48.1287 54.558 47.876 54.6326 47.5938C54.7266 47.0978 54.7751 46.5938 54.7772 46.0885C54.7729 46.0586 54.7744 46.0282 54.7816 45.9989C54.7889 45.9696 54.8017 45.9421 54.8194 45.9179C54.837 45.8937 54.8592 45.8734 54.8846 45.8581C54.91 45.8427 54.9381 45.8327 54.9673 45.8286C54.9883 45.8254 55.0096 45.8254 55.0306 45.8286H60.7901C60.9591 45.8286 61.0551 45.8903 61.0805 46.0138L69.3032 69.7932C69.3761 70.0401 69.3032 70.1647 69.0857 70.1647H64.3767C64.2959 70.1739 64.2145 70.1526 64.1479 70.1048C64.0812 70.0569 64.0339 69.9858 64.0146 69.9048L62.1669 64.4069ZM55.1035 59.7223H60.826C60.6817 59.2263 60.5128 58.669 60.3192 58.0503C60.1257 57.4316 59.9205 56.7688 59.7037 56.062L59.0512 53.945C58.8337 53.2389 58.6345 52.5574 58.4536 51.9005C58.2727 51.2435 58.1083 50.6443 57.9605 50.1028H57.9246C57.7206 51.106 57.4665 52.0978 57.1634 53.0743C56.8255 54.1897 56.4813 55.3293 56.1308 56.493C55.7802 57.6568 55.4378 58.7332 55.1035 59.7223Z" fill="#FF9A00"/>
<path d="M74.1925 49.7684C73.823 49.7835 73.4546 49.7184 73.1113 49.5776C72.768 49.4367 72.4575 49.2231 72.2002 48.9508C71.9435 48.6666 71.7442 48.3331 71.6138 47.9696C71.4833 47.6061 71.4242 47.2197 71.44 46.8326C71.4274 46.4502 71.4935 46.0693 71.634 45.7149C71.7744 45.3604 71.986 45.0402 72.2551 44.7751C72.5215 44.5128 72.836 44.3071 73.1803 44.1699C73.5246 44.0328 73.8919 43.9668 74.2611 43.9759C75.1304 43.9759 75.8125 44.2423 76.3073 44.7751C76.8093 45.3337 77.0751 46.0735 77.0464 46.8326C77.0616 47.2212 77.0005 47.609 76.8667 47.9729C76.7328 48.3368 76.5289 48.6693 76.2672 48.9508C75.9949 49.2261 75.67 49.4409 75.313 49.5816C74.956 49.7222 74.5746 49.7858 74.1925 49.7684ZM71.6934 69.7934V52.0338C71.6934 51.8107 71.7895 51.6992 71.9827 51.6992H76.4372C76.6294 51.6992 76.7265 51.8075 76.7265 52.0338V69.7934C76.7265 70.0403 76.6304 70.1648 76.4372 70.1648H72.0196C71.8021 70.1659 71.6934 70.0414 71.6934 69.7934Z" fill="#FF9A00"/>
</g>
</g>
<defs>
<filter id="filter0_d_67_5003" x="0.1" y="0.1" width="131.8" height="131.8" filterUnits="userSpaceOnUse" color-interpolation-filters="sRGB">
<feFlood flood-opacity="0" result="BackgroundImageFix"/>
<feColorMatrix in="SourceAlpha" type="matrix" values="0 0 0 0 0 0 0 0 0 0 0 0 0 0 0 0 0 0 127 0" result="hardAlpha"/>
<feOffset dx="3" dy="7"/>
<feGaussianBlur stdDeviation="10.45"/>
<feComposite in2="hardAlpha" operator="out"/>
<feColorMatrix type="matrix" values="0 0 0 0 0 0 0 0 0 0 0 0 0 0 0 0 0 0 0.2 0"/>
<feBlend mode="normal" in2="BackgroundImageFix" result="effect1_dropShadow_67_5003"/>
<feBlend mode="normal" in="SourceGraphic" in2="effect1_dropShadow_67_5003" result="shape"/>
</filter>
<clipPath id="clip0_67_5003">
<rect width="54" height="54" fill="white" transform="translate(36 32)"/>
</clipPath>
</defs>
</svg>
