<svg width="286" height="252" viewBox="0 0 286 252" fill="none" xmlns="http://www.w3.org/2000/svg">
<path d="M213.528 87.5604L194.357 99.7345C201.477 110.892 205.621 124.133 205.621 138.349C205.621 178.061 173.425 210.258 133.715 210.258C94.0049 210.258 61.8108 178.061 61.8108 138.349C61.8108 98.9369 93.5288 66.9447 132.829 66.4677V43.8071C81.0822 44.3216 39.1406 86.5567 39.1406 138.423C39.1406 190.609 81.5967 233.064 133.782 233.064C185.966 233.064 228.422 190.609 228.422 138.423C228.422 119.711 222.94 102.262 213.528 87.5604Z" fill="url(#paint0_linear_102_283)"/>
<path opacity="0.2" d="M186.525 139.525C186.318 165.508 165.125 186.584 139.096 186.584C112.938 186.584 91.6562 165.303 91.6562 139.144C91.6562 121.414 101.436 105.927 115.883 97.7857C112.362 90.4106 108.242 83.2915 103.865 76.3716C81.9358 88.7274 67.0879 112.23 67.0879 139.143C67.0879 178.846 99.3903 211.149 139.095 211.149C178.672 211.149 210.883 179.052 211.09 139.523H186.525V139.525Z" fill="#90D9EF"/>
<path d="M181.211 138.797C181.005 164.78 159.811 185.856 133.782 185.856C107.624 185.856 86.3429 164.575 86.3429 138.416C86.3429 118.867 98.2322 102.043 115.159 94.7896L106.004 71.9893C80.0518 82.8828 61.7754 108.553 61.7754 138.416C61.7754 178.12 94.0778 210.421 133.782 210.421C173.359 210.421 205.571 178.325 205.778 138.796L181.211 138.797Z" fill="url(#paint1_linear_102_283)"/>
<path d="M159.237 138.635C159.237 152.73 147.81 164.157 133.716 164.157C119.622 164.157 108.195 152.73 108.195 138.635C108.195 124.541 119.622 113.114 133.716 113.114C147.81 113.114 159.237 124.541 159.237 138.635Z" fill="white"/>
<path opacity="0.2" d="M162.317 138.647C162.631 140.533 162.743 141.116 162.615 143.107C161.719 157.19 149.53 167.92 135.448 167.024C121.364 166.128 110.635 153.939 111.531 139.854C112.275 128.173 120.792 118.806 131.711 116.462L133.248 92.3198C109.165 94.1795 89.4363 113.561 87.8587 138.347C86.1309 165.486 106.804 188.969 133.942 190.697C161.08 192.424 184.562 171.752 186.29 144.613C186.415 142.657 186.419 140.719 186.315 138.809L162.317 138.647Z" fill="#31233B"/>
<path d="M158.706 132.629C159.141 134.492 159.375 136.43 159.375 138.424C159.375 152.535 147.893 164.019 133.783 164.019C119.67 164.019 108.188 152.536 108.188 138.424C108.188 126.719 116.092 116.831 126.84 113.797V89.606C102.924 92.9926 84.4668 113.588 84.4668 138.425C84.4668 165.619 106.59 187.741 133.783 187.741C160.976 187.741 183.098 165.619 183.098 138.425C183.098 136.464 182.979 134.531 182.754 132.63H158.706V132.629Z" fill="white"/>
<path d="M141.417 36.4609H126.092V51.7858H141.417V36.4609Z" fill="#31233B"/>
<path d="M46.7752 131.549H31.4512V146.875H46.7752V131.549Z" fill="#31233B"/>
<path d="M236.505 131.55H221.18V146.876H236.505V131.55Z" fill="#31233B"/>
<path d="M230.061 139.087H227.376C227.376 87.463 185.377 45.4655 133.755 45.4655C82.1319 45.4655 40.1344 87.463 40.1344 139.087H37.4492C37.4492 85.9833 80.6521 42.7812 133.755 42.7812C186.858 42.7812 230.061 85.9833 230.061 139.087Z" fill="#31233B"/>
<path d="M229.2 40.5732H37.0645V43.2575H229.2V40.5732Z" fill="#31233B"/>
<path d="M229.2 47.62C226.055 47.62 223.496 45.0606 223.496 41.9151C223.496 38.7696 226.055 36.2119 229.2 36.2119C232.346 36.2119 234.905 38.7704 234.905 41.9151C234.905 45.0614 232.346 47.62 229.2 47.62Z" fill="#31233B"/>
<path d="M37.2322 47.62C34.0858 47.62 31.5273 45.0606 31.5273 41.9151C31.5273 38.7696 34.0867 36.2119 37.2322 36.2119C40.3777 36.2119 42.9363 38.7704 42.9363 41.9151C42.9363 45.0614 40.3777 47.62 37.2322 47.62Z" fill="#31233B"/>
<path d="M135.967 79.1045V127.471C138.571 128.378 140.446 130.847 140.443 133.762C140.444 137.444 137.458 140.429 133.776 140.43C130.095 140.43 127.11 137.444 127.109 133.762C127.109 130.849 128.982 128.378 131.588 127.469V79.1045L100.559 139.213L111.072 160.24H156.483L166.996 139.213L135.967 79.1045Z" fill="url(#paint2_linear_102_283)"/>
<path d="M160.06 157.757H107.494V172.942H160.06V157.757Z" fill="url(#paint3_linear_102_283)"/>
<path d="M133.717 188.09C140.73 188.09 147.397 186.622 153.441 183.99V165.208L114.113 165.207V184.045C120.126 186.642 126.75 188.09 133.717 188.09Z" fill="url(#paint4_linear_102_283)"/>
<path d="M90.0709 244.563H82.0879V246.346H90.0709V244.563Z" fill="#7BC5EC"/>
<path d="M74.105 244.563H66.1211V246.346H74.105V244.563Z" fill="#7BC5EC"/>
<path d="M58.1382 244.563H50.1543V246.346H58.1382V244.563Z" fill="#7BC5EC"/>
<path d="M122.003 244.563H114.02V246.346H122.003V244.563Z" fill="#7BC5EC"/>
<path d="M26.2057 244.563H18.2227V246.346H26.2057V244.563Z" fill="#7BC5EC"/>
<path d="M42.1725 244.563H34.1895V246.346H42.1725V244.563Z" fill="#7BC5EC"/>
<path d="M106.039 244.563H98.0547V246.346H106.039V244.563Z" fill="#7BC5EC"/>
<path d="M233.769 244.563H225.785V246.346H233.769V244.563Z" fill="#7BC5EC"/>
<path d="M217.804 244.563H209.82V246.346H217.804V244.563Z" fill="#7BC5EC"/>
<path d="M153.937 244.563H145.953V246.346H153.937V244.563Z" fill="#7BC5EC"/>
<path d="M249.735 244.563H241.752V246.346H249.735V244.563Z" fill="#7BC5EC"/>
<path d="M169.904 244.563H161.92V246.346H169.904V244.563Z" fill="#7BC5EC"/>
<path d="M201.837 244.563H193.854V246.346H201.837V244.563Z" fill="#7BC5EC"/>
<path d="M185.87 244.563H177.887V246.346H185.87V244.563Z" fill="#7BC5EC"/>
<path d="M7.1179 83.6538H5.33594V91.5425H7.1179V83.6538Z" fill="#7BC5EC"/>
<path d="M7.1179 99.4331H5.33594V107.321H7.1179V99.4331Z" fill="#7BC5EC"/>
<path d="M7.1179 115.212H5.33594V123.101H7.1179V115.212Z" fill="#7BC5EC"/>
<path d="M7.1179 36.3174H5.33594V44.2061H7.1179V36.3174Z" fill="#7BC5EC"/>
<path d="M7.1179 67.8745H5.33594V75.7649H7.1179V67.8745Z" fill="#7BC5EC"/>
<path d="M7.1179 52.0957H5.33594V59.9852H7.1179V52.0957Z" fill="#7BC5EC"/>
<path d="M7.1179 162.548H5.33594V170.439H7.1179V162.548Z" fill="#7BC5EC"/>
<path d="M7.1179 178.328H5.33594V186.217H7.1179V178.328Z" fill="#7BC5EC"/>
<path d="M7.1179 146.769H5.33594V154.659H7.1179V146.769Z" fill="#7BC5EC"/>
<path d="M7.1179 194.106H5.33594V201.997H7.1179V194.106Z" fill="#7BC5EC"/>
<path d="M7.1179 225.666H5.33594V233.554H7.1179V225.666Z" fill="#7BC5EC"/>
<path d="M7.1179 209.884H5.33594V217.774H7.1179V209.884Z" fill="#7BC5EC"/>
<path d="M90.0709 23.5239H82.0879V25.3059H90.0709V23.5239Z" fill="#7BC5EC"/>
<path d="M74.105 23.5239H66.1211V25.3059H74.105V23.5239Z" fill="#7BC5EC"/>
<path d="M26.2057 23.5239H18.2227V25.3059H26.2057V23.5239Z" fill="#7BC5EC"/>
<path d="M106.039 23.5239H98.0547V25.3059H106.039V23.5239Z" fill="#7BC5EC"/>
<path d="M58.1382 23.5239H50.1543V25.3059H58.1382V23.5239Z" fill="#7BC5EC"/>
<path d="M42.1725 23.5239H34.1895V25.3059H42.1725V23.5239Z" fill="#7BC5EC"/>
<path d="M122.003 23.5239H114.02V25.3059H122.003V23.5239Z" fill="#7BC5EC"/>
<path d="M217.803 23.5239H209.82V25.3059H217.803V23.5239Z" fill="#7BC5EC"/>
<path d="M233.769 23.5239H225.785V25.3059H233.769V23.5239Z" fill="#7BC5EC"/>
<path d="M249.735 23.5239H241.752V25.3059H249.735V23.5239Z" fill="#7BC5EC"/>
<path d="M169.904 23.5239H161.92V25.3059H169.904V23.5239Z" fill="#7BC5EC"/>
<path d="M153.937 23.5239H145.953V25.3059H153.937V23.5239Z" fill="#7BC5EC"/>
<path d="M185.87 23.5239H177.887V25.3059H185.87V23.5239Z" fill="#7BC5EC"/>
<path d="M201.837 23.5239H193.854V25.3059H201.837V23.5239Z" fill="#7BC5EC"/>
<path d="M262.618 67.8726H260.836V75.763H262.618V67.8726Z" fill="#7BC5EC"/>
<path d="M262.618 83.6533H260.836V91.5411H262.618V83.6533Z" fill="#7BC5EC"/>
<path d="M262.618 36.3164H260.836V44.2059H262.618V36.3164Z" fill="#7BC5EC"/>
<path d="M262.618 99.4316H260.836V107.32H262.618V99.4316Z" fill="#7BC5EC"/>
<path d="M262.618 52.0952H260.836V59.9848H262.618V52.0952Z" fill="#7BC5EC"/>
<path d="M262.618 115.211H260.836V123.101H262.618V115.211Z" fill="#7BC5EC"/>
<path d="M262.618 178.327H260.836V186.217H262.618V178.327Z" fill="#7BC5EC"/>
<path d="M262.618 146.768H260.836V154.658H262.618V146.768Z" fill="#7BC5EC"/>
<path d="M262.618 162.548H260.836V170.438H262.618V162.548Z" fill="#7BC5EC"/>
<path d="M262.618 194.105H260.836V201.997H262.618V194.105Z" fill="#7BC5EC"/>
<path d="M262.618 209.884H260.836V217.774H262.618V209.884Z" fill="#7BC5EC"/>
<path d="M262.618 225.664H260.836V233.552H262.618V225.664Z" fill="#7BC5EC"/>
<path d="M266.853 19.291H256.604V29.5399H266.853V19.291Z" stroke="#7BC5EC" stroke-width="1.74702" stroke-miterlimit="10"/>
<path d="M266.853 240.329H256.604V250.579H266.853V240.329Z" stroke="#7BC5EC" stroke-width="1.74702" stroke-miterlimit="10"/>
<path d="M138.481 19.291H128.23V29.5399H138.481V19.291Z" stroke="#7BC5EC" stroke-width="1.74702" stroke-miterlimit="10"/>
<path d="M138.481 240.329H128.23V250.579H138.481V240.329Z" stroke="#7BC5EC" stroke-width="1.74702" stroke-miterlimit="10"/>
<path d="M266.675 129.811H256.426V140.059H266.675V129.811Z" stroke="#7BC5EC" stroke-width="1.74702" stroke-miterlimit="10"/>
<path d="M11.3231 129.811H1.07422V140.06H11.3231V129.811Z" stroke="#7BC5EC" stroke-width="1.74702" stroke-miterlimit="10"/>
<path d="M11.2498 19.291H1V29.5399H11.2498V19.291Z" stroke="#7BC5EC" stroke-width="1.74702" stroke-miterlimit="10"/>
<path d="M11.2498 240.329H1V250.579H11.2498V240.329Z" stroke="#7BC5EC" stroke-width="1.74702" stroke-miterlimit="10"/>
<path d="M262.574 3.47461C273.509 3.47461 282.373 12.339 282.373 23.2736" stroke="#31233B" stroke-width="1.74702" stroke-miterlimit="10"/>
<path d="M286.001 21.7764L282.52 27.8062L279.039 21.7764H286.001Z" fill="#31233B"/>
<path d="M264.152 6.96236L258.123 3.48143L264.152 0.000488281V6.96236Z" fill="#31233B"/>
<defs>
<linearGradient id="paint0_linear_102_283" x1="133.781" y1="43.8071" x2="133.781" y2="233.064" gradientUnits="userSpaceOnUse">
<stop stop-color="#BBEFFF"/>
<stop offset="1" stop-color="#81BED1"/>
</linearGradient>
<linearGradient id="paint1_linear_102_283" x1="133.777" y1="71.9893" x2="133.777" y2="210.421" gradientUnits="userSpaceOnUse">
<stop stop-color="#BCEDFF"/>
<stop offset="1" stop-color="#77AEC1"/>
</linearGradient>
<linearGradient id="paint2_linear_102_283" x1="133.777" y1="160.24" x2="138.339" y2="24.1856" gradientUnits="userSpaceOnUse">
<stop/>
<stop offset="1" stop-color="#AFAFAF"/>
</linearGradient>
<linearGradient id="paint3_linear_102_283" x1="133.777" y1="172.942" x2="133.979" y2="147.452" gradientUnits="userSpaceOnUse">
<stop/>
<stop offset="1" stop-color="#AFAFAF"/>
</linearGradient>
<linearGradient id="paint4_linear_102_283" x1="133.777" y1="188.09" x2="134.391" y2="149.684" gradientUnits="userSpaceOnUse">
<stop/>
<stop offset="1" stop-color="#AFAFAF"/>
</linearGradient>
</defs>
</svg>
