<svg width="860" height="293" viewBox="0 0 860 293" fill="none" xmlns="http://www.w3.org/2000/svg">
<path d="M77.0042 229V77.3056H121.812C137.215 77.3056 150.751 79.8727 162.42 85.007C174.244 89.9857 183.424 97.9982 189.958 109.045C196.493 120.091 199.76 134.56 199.76 152.453C199.76 170.345 196.493 184.97 189.958 196.327C183.424 207.529 174.478 215.775 163.12 221.065C151.762 226.355 138.771 229 124.146 229H77.0042ZM117.145 196.794H119.479C126.791 196.794 133.403 195.549 139.316 193.06C145.228 190.571 149.895 186.137 153.318 179.758C156.897 173.379 158.686 164.277 158.686 152.453C158.686 140.628 156.897 131.682 153.318 125.614C149.895 119.391 145.228 115.19 139.316 113.012C133.403 110.678 126.791 109.511 119.479 109.511H117.145V196.794ZM226.739 229V77.3056H324.757V110.912H266.879V134.716H316.355V168.322H266.879V195.394H327.09V229H226.739ZM404.493 231.801C395.002 231.801 385.123 230.011 374.854 226.433C364.586 222.854 355.328 217.409 347.082 210.097L369.953 182.558C375.399 186.915 381.233 190.493 387.456 193.293C393.835 195.938 399.825 197.261 405.426 197.261C411.494 197.261 415.85 196.327 418.495 194.46C421.296 192.593 422.696 189.948 422.696 186.526C422.696 182.947 420.829 180.224 417.095 178.357C413.517 176.49 408.538 174.312 402.159 171.823L383.256 163.888C375.165 160.621 368.008 155.487 361.785 148.485C355.717 141.484 352.683 132.538 352.683 121.647C352.683 112.934 355.095 105.077 359.918 98.076C364.741 90.9192 371.353 85.2404 379.755 81.0396C388.312 76.6832 398.114 74.505 409.16 74.505C417.873 74.505 426.664 76.2165 435.532 79.6393C444.556 82.9066 452.568 87.9631 459.57 94.8088L439.499 120.013C434.365 116.435 429.386 113.712 424.563 111.845C419.896 109.978 414.761 109.045 409.16 109.045C404.337 109.045 400.448 109.9 397.492 111.612C394.691 113.323 393.291 115.89 393.291 119.313C393.291 122.892 395.313 125.692 399.359 127.715C403.404 129.582 408.849 131.838 415.695 134.483L434.132 141.717C443.622 145.451 450.935 150.663 456.069 157.354C461.203 164.044 463.77 172.679 463.77 183.258C463.77 191.815 461.437 199.828 456.769 207.296C452.257 214.608 445.567 220.521 436.699 225.033C427.83 229.545 417.095 231.801 404.493 231.801ZM488.147 229V77.3056H528.288V229H488.147ZM632.002 231.801C617.844 231.801 604.93 229 593.261 223.399C581.748 217.642 572.569 209.007 565.723 197.494C558.877 185.981 555.454 171.589 555.454 154.32C555.454 141.562 557.477 130.282 561.522 120.48C565.567 110.523 571.091 102.121 578.092 95.2755C585.093 88.4298 593.106 83.2955 602.13 79.8727C611.309 76.2943 620.955 74.505 631.068 74.505C642.27 74.505 651.994 76.5276 660.24 80.5728C668.486 84.4624 675.254 89.13 680.544 94.5754L659.54 120.247C655.806 116.979 651.839 114.335 647.638 112.312C643.593 110.134 638.536 109.045 632.468 109.045C622.2 109.045 613.643 112.934 606.797 120.714C599.951 128.337 596.528 139.072 596.528 152.919C596.528 167.078 599.718 178.046 606.097 185.825C612.631 193.449 622.667 197.261 636.202 197.261C638.381 197.261 640.481 197.027 642.504 196.561C644.682 196.094 646.471 195.394 647.871 194.46V173.457H625.467V140.784H683.344V213.13C678.055 218.265 670.82 222.699 661.64 226.433C652.617 230.011 642.737 231.801 632.002 231.801ZM712.863 229V77.3056H753.937L787.543 144.985L802.012 179.058H802.946C802.012 170.812 800.923 161.477 799.679 151.052C798.434 140.473 797.812 130.515 797.812 121.18V77.3056H836.085V229H795.011L761.405 161.088L746.936 127.248H746.002C746.936 135.805 748.025 145.296 749.269 155.72C750.514 165.988 751.136 175.79 751.136 185.125V229H712.863Z" fill="#90D9EF"/>
<path d="M859.766 238.354C859.766 240.677 857.883 242.559 855.56 242.559H45.2601C42.9372 242.559 41.0547 240.677 41.0547 238.354V237.58C41.0547 235.257 42.9372 233.375 45.2601 233.375H855.56C857.883 233.375 859.766 235.257 859.766 237.58V238.354Z" fill="#0091C8"/>
<path d="M497.332 276.578C521.19 276.578 540.531 274.509 540.531 271.957C540.531 269.405 521.19 267.336 497.332 267.336C473.474 267.336 454.133 269.405 454.133 271.957C454.133 274.509 473.474 276.578 497.332 276.578Z" fill="#0091C8"/>
<path d="M506.256 191.775C504.159 201.609 495.344 203.826 489.844 202.652C484.344 201.478 486.615 191.67 487.515 187.443C488.417 183.219 493.314 181.913 498.814 183.086C504.314 184.26 507.158 187.55 506.256 191.775Z" fill="#CD5014"/>
<path d="M497.615 209.855L487.863 210.684L490.824 194.638L496.102 200.27L497.615 209.855Z" fill="#FA968C"/>
<path d="M516.884 215.493C519.948 221.131 530.613 248.569 526.895 250.59C523.178 252.61 506.489 228.446 503.425 222.808C500.361 217.17 500.887 210.964 504.605 208.941C508.322 206.923 513.82 209.855 516.884 215.493Z" fill="#FAB9AF"/>
<path d="M475.474 231.481C469.519 241.761 460.384 247.611 457.9 246.16C455.303 244.641 458.101 234.35 463.636 224.303C469.367 213.897 475.72 206.764 479.469 208.935C483.221 211.107 481.432 221.201 475.474 231.481Z" fill="#FAB9AF"/>
<path d="M511.123 234.473C507.586 229.557 504.564 224.903 503.425 222.808C500.361 217.17 500.887 210.964 504.605 208.941C508.322 206.921 513.818 209.853 516.884 215.491C518.063 217.661 520.363 223.053 522.539 228.986C518.952 234.113 511.123 234.473 511.123 234.473Z" fill="#82BE50"/>
<path d="M463.635 224.301C469.366 213.895 475.719 206.762 479.468 208.933C483.024 210.994 481.592 220.182 476.354 229.893C476.354 229.893 466.126 228.547 463.635 224.301Z" fill="#82BE50"/>
<path d="M479.153 208.445L506.94 208.294C512.478 208.263 516.425 213.658 514.723 218.928L499.669 265.486C497.873 271.044 492.457 274.607 486.641 274.058C480.578 273.485 475.817 268.611 475.384 262.537L472.079 216.084C471.786 211.97 475.032 208.468 479.153 208.445Z" fill="#FA968C"/>
<path d="M479.153 208.445L487.659 208.399C486.832 211.534 488.222 215.316 492.368 215.862C497.185 216.496 499.538 211.969 498.671 208.34L506.938 208.294C512.476 208.263 516.423 213.658 514.721 218.928L499.667 265.486C497.87 271.044 492.453 274.607 486.639 274.058C480.576 273.485 475.815 268.613 475.382 262.537L472.077 216.084C471.786 211.97 475.032 208.468 479.153 208.445Z" fill="#82BE50"/>
<path d="M472.871 246.916C477.237 248.864 498.995 260.172 497.892 262.644C496.789 265.117 473.146 257.066 468.885 254.898C461.059 250.917 456.053 246.759 457.156 244.287C458.259 241.815 468.504 244.969 472.871 246.916Z" fill="#FAB9AF"/>
<path d="M526.964 267.97C519.07 270.367 468.794 282.352 466.876 278.303C466.138 276.744 514.351 254.842 522.247 252.443C530.141 250.045 537.598 251.577 538.9 255.863C540.202 260.151 534.857 265.572 526.964 267.97Z" fill="#FA968C"/>
<path d="M484.338 268.948C498.752 262.123 517.569 253.862 522.244 252.443C530.138 250.045 537.595 251.577 538.897 255.865C540.199 260.152 534.856 265.572 526.961 267.972C522.256 269.4 503.62 275.094 488.017 277.911C487.331 274.621 486.439 271.005 484.338 268.948Z" fill="#003C63"/>
<path d="M504.178 197.447C502.667 204.525 500.558 207.716 496.922 206.94C492.494 205.996 487.938 199.944 489.183 194.113C490.428 188.282 493.724 185.459 498.153 186.403C502.579 187.349 505.422 191.616 504.178 197.447Z" fill="#FAB9AF"/>
<path d="M489.822 191.861L501.037 194.253C502.218 194.506 503.39 194.368 504.428 193.933C504.12 189.942 501.628 187.144 498.151 186.403C494.34 185.591 491.37 187.575 489.822 191.861Z" fill="#FF9669"/>
<path d="M501.267 193.167L488.359 190.413L488.909 187.84C489.564 184.768 492.584 182.811 495.656 183.466L508.597 186.227L508.055 188.765C507.397 191.855 504.358 193.826 501.267 193.167Z" fill="#CD5014"/>
<path d="M491.113 195.593L492.483 189.174L495.284 189.771L494.512 193.389C494.183 194.936 492.661 195.924 491.113 195.593Z" fill="#CD5014"/>
<path d="M492.449 194.58C492.038 196.511 491.096 197.945 489.525 197.61C487.955 197.275 487.511 194.406 487.922 192.476C488.334 190.545 489.445 190.287 491.015 190.622C492.587 190.955 492.861 192.65 492.449 194.58Z" fill="#FAB9AF"/>
<path d="M521.016 254.822C516.593 256.331 492.025 262.927 491.197 260.504C490.37 258.082 513.599 247.557 518.023 246.048C522.447 244.539 526.704 245.28 527.529 247.702C528.357 250.127 525.44 253.313 521.016 254.822Z" fill="#FAB9AF"/>
<path d="M477.707 272.706C477.707 272.706 477.563 273.12 473.264 272.689C468.965 272.26 468.452 270.525 465.117 274.619C461.785 278.715 453.712 279.085 453.486 281.121C453.26 283.156 485.647 276.904 485.647 276.904L477.707 272.706Z" fill="#FA968C"/>
<path d="M465.119 274.621C468.452 270.527 468.967 272.26 473.266 272.691C473.274 272.691 473.279 272.693 473.287 272.693C469.608 273.673 467.573 276.789 467.174 280.146C459.951 281.27 453.386 282.044 453.489 281.124C453.714 279.087 461.785 278.715 465.119 274.621Z" fill="#373C41"/>
<path d="M497.434 255.406C497.434 255.406 501.681 257.06 501.607 258.523C501.532 259.987 501.212 260.957 499.079 260.927C496.944 260.898 494.029 259.839 492.409 258.855C490.789 257.87 488.768 255.075 488.749 254.632C488.682 253.024 491.43 255.113 492.811 256.061C494.192 257.009 495.844 257.941 496.113 257.148C496.381 256.356 493.6 254.739 493.608 253.728C493.611 252.719 497.434 255.406 497.434 255.406Z" fill="#FAB9AF"/>
<path d="M489.596 264.306L518.381 260.882C519.706 260.725 520.704 259.601 520.704 258.266V239.949C520.704 238.371 519.325 237.147 517.758 237.333L488.973 240.757C487.648 240.914 486.65 242.038 486.65 243.373V261.69C486.65 263.27 488.027 264.494 489.596 264.306Z" fill="#AFE6FF"/>
<path d="M499.621 251.179C499.621 254.312 501.601 256.853 504.045 256.853C506.488 256.853 508.469 254.312 508.469 251.179C508.469 248.046 506.488 245.505 504.045 245.505C501.601 245.505 499.621 248.044 499.621 251.179Z" fill="#D2F0FF"/>
<path d="M472.192 251.273C480.205 253.24 522.726 270.743 523.257 275.699C523.371 276.781 475.528 271.601 467.516 269.634C459.503 267.668 454.344 261.318 455.533 256.478C456.721 251.635 464.18 249.306 472.192 251.273Z" fill="#FAB9AF"/>
<path d="M512.829 268.251C512.829 268.251 516.726 270.341 521.027 270.751C525.328 271.16 526.167 269.558 528.645 274.219C531.123 278.882 538.971 280.805 538.801 282.846C538.628 284.887 508.061 272.493 508.061 272.493L512.829 268.251Z" fill="#FAB9AF"/>
<path d="M520.373 270.657C520.593 270.688 520.806 270.73 521.028 270.751C525.329 271.161 526.168 269.558 528.646 274.219C531.124 278.882 538.972 280.805 538.801 282.846C538.725 283.758 532.595 281.793 525.831 279.338C525.907 275.698 524.084 272.017 520.373 270.657Z" fill="#373C41"/>
<path d="M455.533 256.476C456.721 251.635 464.18 249.306 472.192 251.273C476.832 252.413 493.043 258.763 505.972 264.868C505.096 268.252 504.213 273.532 504.459 275.845C490.339 274.391 472.039 270.743 467.514 269.633C459.501 267.668 454.344 261.316 455.533 256.476Z" fill="#0073AA"/>
<path d="M241.04 137.109C240.832 142.72 245.211 147.437 250.822 147.643C256.433 147.852 261.15 143.473 261.357 137.861C261.566 132.25 257.186 127.534 251.575 127.327C245.964 127.12 241.249 131.5 241.04 137.109Z" fill="#B80B5A"/>
<path d="M239.322 138.977C236.226 143.271 225.272 162.743 227.78 164.551C230.287 166.359 245.305 149.818 248.401 145.525C251.498 141.231 251.975 136.285 249.468 134.477C246.959 132.667 242.417 134.684 239.322 138.977Z" fill="#FAB9AF"/>
<path d="M227.166 157.144C224.361 155.122 206.03 143.333 204.911 144.882C203.795 146.431 220.318 160.729 223.122 162.751C225.927 164.773 229.106 165.158 230.222 163.611C231.339 162.062 229.972 159.168 227.166 157.144Z" fill="#FAB9AF"/>
<path d="M207.508 143.35C207.508 143.35 206.439 146.831 204.231 145.969C202.023 145.106 201.096 138.65 202.224 137.411C203.352 136.172 205.035 140.253 207.508 143.35Z" fill="#FAB9AF"/>
<path d="M208.363 142.315C208.681 141.808 208.526 141.14 208.02 140.824L197.52 134.253C197.013 133.935 196.346 134.09 196.028 134.596C195.711 135.103 195.866 135.772 196.371 136.088L206.871 142.658C207.377 142.976 208.045 142.823 208.363 142.315Z" fill="#965028"/>
<path d="M204.715 137.503C205.118 137.518 205.311 138.678 205.401 140.042C205.451 140.796 205.683 141.566 206.225 142.093C206.579 142.436 206.797 142.976 206.774 143.577C206.738 144.582 206.046 145.371 205.233 145.341C204.17 145.301 204.028 143.393 204.02 142.656C204.005 141.357 204.204 137.483 204.715 137.503Z" fill="#FAB9AF"/>
<path d="M196.128 132.175C197.207 132.755 197.609 134.1 197.028 135.178C196.448 136.256 195.104 136.658 194.026 136.078C192.947 135.498 190.623 133.117 191.203 132.039C193.126 133.075 195.05 131.595 196.128 132.175Z" fill="#DCBE82"/>
<path d="M196.128 132.175C197.207 132.755 195.104 136.658 194.026 136.078C192.947 135.498 190.623 133.117 191.203 132.039C193.126 133.075 195.05 131.595 196.128 132.175Z" fill="#FF640A"/>
<path d="M192.048 136.799C192.048 137.402 191.56 137.89 190.957 137.89C190.354 137.89 189.865 137.402 189.865 136.799C189.865 136.195 190.957 134.719 190.957 134.719C190.957 134.719 192.048 136.195 192.048 136.799Z" fill="#FF640A"/>
<path d="M254.647 279.581C262.649 279.581 269.136 278.925 269.136 278.116C269.136 277.307 262.649 276.651 254.647 276.651C246.645 276.651 240.158 277.307 240.158 278.116C240.158 278.925 246.645 279.581 254.647 279.581Z" fill="#0091C8"/>
<path d="M250.359 259.502C250.359 259.502 253.501 267.729 254.792 268.558C256.081 269.387 257.693 271.322 256.22 272.888C255.127 274.05 253.997 275.408 253.034 276.247C252.207 276.969 251.161 277.379 250.064 277.413C248.126 277.475 245.15 277.555 244.659 277.494C243.922 277.402 244.981 275.559 247.746 275.19C250.51 274.82 252.149 268.516 248.652 263.954L250.359 259.502Z" fill="#FA968C"/>
<path d="M256.531 139.373C256.322 144.984 260.702 149.7 266.313 149.907C271.924 150.116 276.64 145.736 276.847 140.125C277.056 134.514 272.676 129.797 267.065 129.591C261.456 129.384 256.739 133.763 256.531 139.373Z" fill="#B80B5A"/>
<path d="M253.422 127.777C253.251 132.359 256.829 136.212 261.411 136.383C265.994 136.553 269.847 132.976 270.018 128.393C270.188 123.811 266.611 119.958 262.028 119.787C257.445 119.617 253.592 123.194 253.422 127.777Z" fill="#B80B5A"/>
<path d="M244.266 177.19L257.307 175.614L260.48 166.591L270.58 140.286C271.632 137.549 269.678 134.589 266.748 134.481L247.464 133.765C244.224 133.644 241.59 136.354 241.803 139.589L244.266 177.19Z" fill="#FFC305"/>
<path d="M253.346 140.423L242.16 140.008L238.364 149.974C237.183 153.078 239.399 156.427 242.719 156.55L247.141 156.715L253.346 140.423Z" fill="#FFC305"/>
<path d="M254.005 197.638C248.819 204.323 235.69 227.497 230.86 223.749C226.03 220.003 235.086 185.91 240.274 179.223C245.46 172.537 260.828 168.014 265.658 171.762C270.488 175.509 259.193 190.952 254.005 197.638Z" fill="#C34646"/>
<path d="M251.873 230.809C252.413 236.075 257.666 277.135 259.374 276.553C260.855 276.048 263.547 234.934 263.009 229.67C262.469 224.403 259.539 220.391 256.465 220.705C253.39 221.019 251.333 225.545 251.873 230.809Z" fill="#FAB9AF"/>
<path d="M230.717 226.493C232.797 231.361 250.019 269.003 251.476 267.94C252.74 267.017 243.09 226.962 241.011 222.094C238.931 217.226 234.94 214.266 232.098 215.48C229.256 216.696 228.637 221.627 230.717 226.493Z" fill="#FA968C"/>
<path d="M256.979 267.218H260.912C261.952 254.776 263.331 232.822 263.009 229.67C262.469 224.403 259.539 220.391 256.466 220.705C253.39 221.019 251.335 225.544 251.875 230.811C252.189 233.886 255.092 255.147 256.979 267.218Z" fill="#D25A50"/>
<path d="M252.173 263.905C249.921 252.084 242.579 225.763 241.011 222.094C238.931 217.226 234.94 214.266 232.098 215.48C229.256 216.694 228.637 221.625 230.717 226.493C232.213 229.994 243.335 253.757 248.998 264.575L252.173 263.905Z" fill="#C34646"/>
<path d="M251.404 192.786C251.09 201.241 249.792 230.646 255.901 230.874C262.01 231.1 273.322 199.42 273.753 187.48C274.331 171.397 265.183 165.692 259.074 165.466C252.965 165.238 251.718 184.331 251.404 192.786Z" fill="#D25A50"/>
<path d="M260.911 267.218C260.911 267.218 260.894 272.126 261.556 274.842C262.219 277.557 261.602 278.666 258.82 278.743C256.039 278.82 249.022 279.618 248.235 278.783C247.45 277.948 250.752 276.778 253.034 275.893C255.735 274.846 257.443 271.464 257.433 269.185L260.911 267.218Z" fill="#FAB9AF"/>
<path d="M254.943 268.667C254.096 271.452 252.072 273.821 248.878 274.65C248.531 274.939 248.152 275.136 247.744 275.19C244.981 275.56 243.92 277.402 244.657 277.494C245.147 277.555 248.123 277.475 250.061 277.413C251.161 277.379 252.204 276.969 253.032 276.247C253.995 275.406 255.125 274.051 256.218 272.888C257.637 271.381 256.203 269.545 254.943 268.667Z" fill="#783C28"/>
<path d="M261.553 274.834C260.148 275.861 258.342 276.495 256.13 276.495C254.918 276.495 253.832 276.3 252.863 275.962C250.59 276.84 247.47 277.971 248.238 278.785C249.025 279.62 256.04 278.822 258.822 278.745C261.605 278.668 262.222 277.56 261.557 274.844C261.553 274.84 261.553 274.834 261.553 274.834Z" fill="#783C28"/>
<path d="M260.597 143.153C259.536 148.339 257.541 170.592 260.569 171.21C263.596 171.831 270.502 150.581 271.563 145.396C272.624 140.21 271.029 135.504 268.001 134.884C264.973 134.265 261.658 137.967 260.597 143.153Z" fill="#FA968C"/>
<path d="M257.419 165.983C253.962 165.876 232.173 166.366 232.113 168.274C232.054 170.181 253.749 172.785 257.204 172.893C260.661 173 263.51 171.539 263.57 169.631C263.629 167.722 260.875 166.088 257.419 165.983Z" fill="#FA968C"/>
<path d="M229.993 166.493C229.993 166.493 233.35 166.221 233.774 167.217C234.197 168.214 234.298 168.961 232.87 169.63C231.441 170.3 229.164 170.537 227.768 170.407C226.374 170.277 224.128 169.07 223.972 168.783C223.408 167.736 225.909 168.237 227.132 168.421C228.356 168.605 229.756 168.691 229.677 168.076C229.599 167.464 227.23 167.287 226.908 166.613C226.587 165.941 229.993 166.493 229.993 166.493Z" fill="#FA968C"/>
<path d="M234.049 166.989C234.049 168.538 230.027 169.792 225.065 169.792C220.104 169.792 216.082 168.538 216.082 166.989C216.082 165.439 220.104 164.185 225.065 164.185C230.027 164.185 234.049 165.439 234.049 166.989Z" fill="#FFFAD7"/>
<path d="M221.499 166.945C221.499 167.313 220.734 167.61 219.792 167.61C218.85 167.61 218.086 167.313 218.086 166.945C218.086 166.578 218.85 166.281 219.792 166.281C220.734 166.281 221.499 166.578 221.499 166.945Z" fill="#FF640A"/>
<path d="M225.596 167.961C225.596 168.329 224.832 168.626 223.89 168.626C222.948 168.626 222.184 168.329 222.184 167.961C222.184 167.594 222.948 167.297 223.89 167.297C224.832 167.297 225.596 167.594 225.596 167.961Z" fill="#FF6196"/>
<path d="M225.954 165.463C225.954 165.831 225.189 166.127 224.247 166.127C223.305 166.127 222.541 165.829 222.541 165.463C222.541 165.095 223.305 164.798 224.247 164.798C225.191 164.798 225.954 165.095 225.954 165.463Z" fill="#6E64C3"/>
<path d="M228.383 167.596C228.383 167.596 230.898 167.758 231.197 166.988C231.495 166.219 228.265 165.545 227.007 165.464C225.75 165.382 224.852 165.479 225.63 165.97C226.409 166.458 228.383 167.596 228.383 167.596Z" fill="#FA968C"/>
<path d="M199.467 198.158H191.579L167.965 102.175L175.403 100.344L199.467 198.158Z" fill="#AFE6FF" stroke="#AFE6FF" stroke-width="1.91503" stroke-miterlimit="10"/>
<path d="M179.328 148.362V278.331H218.088" stroke="#AFE6FF" stroke-width="1.91503" stroke-miterlimit="10"/>
<path d="M191.58 198.158L213.122 198.17" stroke="#AFE6FF" stroke-width="1.91503" stroke-miterlimit="10"/>
<path d="M173.384 202.125H167.965V216.728H173.384V202.125Z" stroke="#AFE6FF" stroke-width="1.91503" stroke-miterlimit="10"/>
<path d="M173.385 209.428H179.329" stroke="#AFE6FF" stroke-width="1.91503" stroke-miterlimit="10"/>
<path d="M247.315 109.484C248.795 109.188 250.157 109.617 251.135 110.469C252.683 111.819 254.552 112.748 256.603 112.822L257.687 112.863C259.274 112.922 260.684 113.899 261.296 115.366L263.378 120.354L249.305 119.831L249.37 118.089C248.96 118.196 248.535 118.267 248.088 118.25C245.293 118.146 243.199 115.475 243.988 112.589C244.414 111.034 245.731 109.802 247.315 109.484Z" fill="#B80B5A"/>
<path d="M252.548 143.599C255.432 144.679 260.572 134.251 260.572 134.251L257.007 126.559L252.876 127.244L252.627 133.956C252.627 133.956 250.291 142.752 252.548 143.599Z" fill="#FA968C"/>
<path d="M243.825 118.24C243.735 120.685 245.645 122.744 248.09 122.834C250.536 122.924 252.594 121.014 252.684 118.569C252.774 116.123 250.865 114.065 248.419 113.975C245.974 113.885 243.917 115.794 243.825 118.24Z" fill="#B80B5A"/>
<path d="M245.884 124.856C245.794 127.301 247.703 129.36 250.149 129.45C252.594 129.54 254.651 127.631 254.743 125.185C254.833 122.738 252.924 120.681 250.478 120.591C248.033 120.501 245.976 122.41 245.884 124.856Z" fill="#B80B5A"/>
<path d="M247.978 119.008C247.707 126.308 253.738 128.171 257.821 128.322C261.904 128.474 261.833 122.426 261.95 119.289C262.066 116.152 258.847 114.362 254.764 114.21C250.682 114.059 248.094 115.871 247.978 119.008Z" fill="#B80B5A"/>
<path d="M247.551 121.264C247.516 122.171 247.181 123.351 247.311 124.406C247.801 128.38 250.783 132.714 252.413 132.714C253.596 132.714 257.409 130.299 258.73 127.265C259.232 126.112 259.548 124.883 259.592 123.69C259.753 119.36 257.932 116.786 254.644 116.664C251.358 116.543 247.711 116.934 247.551 121.264Z" fill="#FAB9AF"/>
<path d="M259.543 121.991L251.217 121.683C250.34 121.65 248.511 120.903 247.98 119.009C248.095 115.907 249.88 115.915 254.647 116.667C257.443 117.106 259.214 118.695 259.543 121.991Z" fill="#FF9669"/>
<path d="M251.246 120.874L260.829 121.231L260.899 119.319C260.984 117.039 259.205 115.122 256.924 115.037L247.316 114.681L247.247 116.566C247.161 118.862 248.951 120.79 251.246 120.874Z" fill="#B80B5A"/>
<path d="M257.969 124.39L258.146 119.624L256.064 119.547L255.964 122.232C255.922 123.381 256.82 124.348 257.969 124.39Z" fill="#B80B5A"/>
<path d="M257.208 123.439C257.154 124.871 257.562 126.049 258.73 126.093C259.896 126.137 260.45 124.498 260.502 123.064C260.555 121.631 260.088 120.948 258.922 120.903C257.755 120.861 257.259 122.007 257.208 123.439Z" fill="#FAB9AF"/>
<path d="M812.898 171.129C812.898 176.02 808.934 179.986 804.041 179.986C799.15 179.986 795.184 176.021 795.184 171.129C795.184 166.236 799.148 162.271 804.041 162.271C808.934 162.271 812.898 166.238 812.898 171.129Z" fill="#FAC855"/>
<path d="M797.484 176.136C797.484 182.492 792.33 187.646 785.974 187.646C779.618 187.646 774.465 182.492 774.465 176.136C774.465 169.78 779.618 164.627 785.974 164.627C792.33 164.627 797.484 169.78 797.484 176.136Z" fill="#FAC855"/>
<path d="M749.395 199.536C749.395 199.536 751.986 203.165 751.142 204.321C750.297 205.48 749.518 206.102 747.785 204.934C746.052 203.766 744.234 201.341 743.434 199.668C742.633 197.994 742.478 194.624 742.698 194.252C743.505 192.898 744.635 196.081 745.257 197.596C745.879 199.11 746.733 200.759 747.377 200.254C748.02 199.748 746.611 196.937 747.157 196.113C747.704 195.292 749.395 199.536 749.395 199.536Z" fill="#FAB9AF"/>
<path d="M771.864 203.646C768.003 203.236 747.185 202.16 746.959 204.291C746.733 206.422 767.185 210.953 771.046 211.361C774.905 211.771 778.218 210.375 778.444 208.244C778.67 206.112 775.725 204.054 771.864 203.646Z" fill="#FAB9AF"/>
<path d="M771.862 203.645C769.315 203.375 757.806 202.728 750.209 202.931C750.77 204.287 751.059 207.161 750.958 208.605C758.296 210.553 768.626 211.104 771.044 211.359C774.905 211.769 778.216 210.373 778.442 208.241C778.668 206.112 775.723 204.053 771.862 203.645Z" fill="#FF82AA"/>
<path d="M722.8 218.322C717.725 220.352 678.433 237.268 679.455 238.89C680.342 240.297 721.758 231.674 726.833 229.646C731.908 227.618 735.118 223.437 734.005 220.31C732.89 217.185 727.875 216.294 722.8 218.322Z" fill="#FAB9AF"/>
<path d="M777.37 184.823C775.198 189.358 771.324 210.888 774.217 212.273C777.111 213.659 785.675 194.377 787.847 189.842C790.018 185.307 789.434 180.508 786.543 179.122C783.649 177.733 779.543 180.288 777.37 184.823Z" fill="#FF82AA"/>
<path d="M816.382 177.97C813.965 173.985 804.628 170.532 804.628 170.532L800.28 157.799C799.534 156.179 797.912 155.143 796.129 155.143H795.407C793.038 155.143 790.634 154.473 788.871 152.893C787.724 151.867 786.1 151.367 784.359 151.784C782.582 152.209 781.174 153.621 780.753 155.4C779.979 158.674 782.442 161.587 785.584 161.587C786.086 161.587 786.559 161.491 787.015 161.354V163.311H798.08C795.1 164.406 792.766 167.013 792.147 170.184C791.299 174.531 793.494 178.417 796.942 180.249C795.981 182.383 795.638 184.855 796.211 187.454C797.245 192.142 801.286 195.746 806.058 196.267C812.935 197.017 818.751 191.651 818.751 184.928C818.751 182.304 817.642 180.048 816.382 177.97Z" fill="#FAC855"/>
<path d="M765.382 210.194C758.58 210.664 723.004 214.193 723.477 221.037C723.95 227.882 762.42 235.318 772.025 234.64C784.961 233.726 788.548 222.954 788.075 216.11C787.602 209.266 772.184 209.723 765.382 210.194Z" fill="#5A325A"/>
<path d="M689.037 233.765C689.037 233.765 682.392 235.453 679.547 235.405C676.701 235.357 666.725 231.713 667.583 235.144C667.583 235.144 675.36 240.901 677.754 241.922C680.768 243.205 682.283 239.099 687.856 237.883L689.037 233.765Z" fill="#FAB9AF"/>
<path d="M674.236 234.384C670.711 233.612 667.051 233.007 667.585 235.142C667.585 235.142 675.362 240.899 677.756 241.919C679.754 242.77 681.1 241.253 683.4 239.778C679.84 240.031 676.228 238.486 674.236 234.384Z" fill="#C8462D"/>
<path d="M807.188 179.01H785.527C781.886 179.01 779.554 187.084 779.554 187.084L776 197.569C774.803 201.1 777.428 204.764 781.159 204.764H781.373L783.748 227.849L798.31 225.538L801.494 215.287L811.728 185.362C812.793 182.249 810.48 179.01 807.188 179.01Z" fill="#FF6196"/>
<path d="M798.832 185.137C795.538 190.082 784.063 212.376 786.949 214.301C789.837 216.224 805.992 197.047 809.286 192.102C812.58 187.157 812.909 181.59 810.024 179.666C807.138 177.741 802.126 180.192 798.832 185.137Z" fill="#FF82AA"/>
<path d="M736.951 220.43C731.572 222.954 691.725 239.781 693.279 241.61C694.483 243.029 699.908 240.505 704.39 239.854C716.426 238.104 738.37 233.642 742.29 231.803C747.669 229.279 750.835 224.687 749.36 221.546C747.884 218.406 742.328 217.906 736.951 220.43Z" fill="#FA968C"/>
<path d="M774.624 217.456C766.65 216.893 738.926 214.7 738.443 221.543C737.961 228.385 767.391 241.865 778.653 242.648C793.822 243.7 799.615 233.585 800.098 226.742C800.58 219.9 782.6 218.021 774.624 217.456Z" fill="#823264"/>
<path d="M700.879 236.904C700.879 236.904 694.176 238.338 691.334 238.183C688.492 238.028 678.662 234.008 679.39 237.471C679.39 237.471 686.943 243.518 689.298 244.627C692.261 246.023 693.931 241.977 699.546 240.973L700.879 236.904Z" fill="#FA968C"/>
<path d="M686.064 236.965C682.569 236.059 678.936 235.318 679.388 237.471C679.388 237.471 686.941 243.518 689.296 244.627C691.261 245.552 692.663 244.087 695.016 242.701C691.451 242.819 687.9 241.136 686.064 236.965Z" fill="#C8462D"/>
<path d="M773.231 217.614L751.408 216.267L744.311 193.685C746.329 193.051 748.48 194.174 749.113 196.19L754.273 212.606L769.643 213.554C771.755 213.686 773.36 215.503 773.231 217.614Z" fill="#82878C"/>
<path d="M783.456 207.732C779.593 208.121 755.42 211.863 755.634 213.994C755.849 216.125 780.371 215.84 784.233 215.451C788.096 215.063 791.053 213.019 790.838 210.888C790.622 208.756 787.318 207.343 783.456 207.732Z" fill="#FAB9AF"/>
<path d="M783.454 207.732C780.906 207.988 769.507 209.706 762.113 211.457C762.941 212.669 763.81 215.425 764.005 216.859C771.587 217.267 781.811 215.695 784.232 215.451C788.095 215.063 791.051 213.019 790.837 210.888C790.621 208.756 787.317 207.343 783.454 207.732Z" fill="#FF82AA"/>
<path d="M755.391 209.735C755.391 209.735 759.436 211.614 759.271 213.039C759.106 214.464 758.737 215.389 756.653 215.228C754.571 215.067 751.791 213.853 750.27 212.792C748.75 211.731 746.951 208.876 746.961 208.443C746.994 206.867 749.548 209.079 750.837 210.09C752.126 211.101 753.681 212.114 753.993 211.356C754.303 210.597 751.689 208.849 751.76 207.863C751.827 206.878 755.391 209.735 755.391 209.735Z" fill="#FAB9AF"/>
<path d="M790.951 188.063C793.914 189.386 800.249 179.011 800.249 179.011L795.929 170.531L791.325 171.471V179.009C791.325 179.009 788.885 187.14 790.951 188.063Z" fill="#FA968C"/>
<path d="M780.803 161.75C780.803 164.498 783.03 166.725 785.778 166.725C788.526 166.725 790.753 164.498 790.753 161.75C790.753 159.002 788.526 156.775 785.778 156.775C783.032 156.775 780.803 159.004 780.803 161.75Z" fill="#FAC855"/>
<path d="M785.494 162.44C785.494 170.64 792.337 172.478 796.923 172.478C801.51 172.478 801.178 165.697 801.178 162.173C801.178 158.65 797.494 156.777 792.907 156.777C788.321 156.775 785.494 158.916 785.494 162.44Z" fill="#FAC855"/>
<path d="M785.027 164.992C785.027 166.141 785.307 167.432 785.493 168.763C786.094 173.068 789.306 177.628 791.039 177.628C792.059 177.628 796.598 174.805 798.013 171.546C798.639 170.104 798.714 168.7 798.714 167.208C798.714 162.346 796.564 159.533 792.871 159.533C789.179 159.535 785.027 160.13 785.027 164.992Z" fill="#FAB9AF"/>
<path d="M798.589 165.303H789.236C786.823 165.083 785.852 163.415 785.494 162.549C785.494 159.066 787.497 158.889 792.875 159.533C796.029 159.912 798.084 161.622 798.589 165.303Z" fill="#FF9669"/>
<path d="M789.235 164.397H799.998V162.252C799.998 159.692 797.922 157.616 795.361 157.616H784.57V159.732C784.568 162.309 786.658 164.397 789.235 164.397Z" fill="#FAC855"/>
<path d="M796.924 168.062V162.71H794.588V165.726C794.588 167.015 795.634 168.062 796.924 168.062Z" fill="#FAC855"/>
<path d="M796.031 167.025C796.031 168.633 796.539 169.939 797.849 169.939C799.159 169.939 799.71 168.078 799.71 166.467C799.71 164.857 799.159 164.11 797.849 164.11C796.539 164.11 796.031 165.416 796.031 167.025Z" fill="#FAB9AF"/>
<path d="M91.2768 81.7183H76.9141V140.845H91.2768V81.7183Z" fill="#FF8C46"/>
<path d="M105.64 81.7183H91.2773V120.065H105.64V81.7183Z" fill="#FF8C46"/>
<path d="M66.935 209.189C66.935 213.643 63.3252 217.253 58.8708 217.253C54.4165 217.253 50.8066 213.643 50.8066 209.189C50.8066 204.734 54.4165 201.125 58.8708 201.125C63.3233 201.123 66.935 204.734 66.935 209.189Z" stroke="#D2D2D7" stroke-width="0.957516" stroke-miterlimit="10"/>
<path d="M67.4196 210.183H50.3203V234.122H67.4196V210.183Z" fill="#A0A0A5"/>
<path d="M50.3203 210.183H67.4196" stroke="#82878C" stroke-width="1.91503" stroke-miterlimit="10" stroke-linecap="round"/>
<path d="M50.3203 221.673H67.4196" stroke="#82878C" stroke-width="1.91503" stroke-miterlimit="10" stroke-linecap="round"/>
<path d="M50.3203 233.163H67.4196" stroke="#82878C" stroke-width="1.91503" stroke-miterlimit="10" stroke-linecap="round"/>
<path d="M63.2869 224.627C62.3045 224.627 61.5078 223.831 61.5078 222.848V209.187H65.0659V222.848C65.0659 223.831 64.2693 224.627 63.2869 224.627Z" fill="#FF8C46"/>
<path d="M58.8687 197.577C58.8687 197.577 61.3544 201.331 60.3969 202.146C59.4394 202.962 56.4462 203.562 55.6093 203.322C54.7725 203.083 53.9337 197.816 54.8912 197.577C55.8487 197.338 58.8687 197.577 58.8687 197.577Z" fill="#FAB9AF"/>
<path d="M32.4426 284.509C50.3601 284.509 64.8851 282.713 64.8851 280.497C64.8851 278.281 50.3601 276.485 32.4426 276.485C14.525 276.485 0 278.281 0 280.497C0 282.713 14.525 284.509 32.4426 284.509Z" fill="#0091C8"/>
<path d="M62.3843 176.252C62.1947 180.306 59.7052 202.25 57.4857 202.147C55.2662 202.043 54.1554 179.93 54.345 175.876C54.5346 171.822 56.4879 168.62 58.7075 168.724C60.9251 168.827 62.572 172.197 62.3843 176.252Z" fill="#FAB9AF"/>
<path d="M56.6771 139.82C58.3068 144.636 63.8144 174.723 60.4286 175.868C57.0428 177.016 46.0429 148.786 44.4132 143.97C42.7835 139.153 44.2064 134.32 47.5921 133.173C50.9798 132.03 55.0454 135.004 56.6771 139.82Z" fill="#FAB9AF"/>
<path d="M59.0085 150.104C58.1965 145.577 57.2562 141.542 56.674 139.82C55.0443 135.004 50.9768 132.028 47.591 133.175C44.2052 134.32 42.7805 139.154 44.4121 143.972C45.0383 145.82 46.8844 150.062 49.1135 154.524C49.1135 154.524 54.9275 154.307 59.0085 150.104Z" fill="#1C9585"/>
<path d="M43.8783 265.55L43.9128 274.874L42.2946 280.171C42.1835 280.535 42.4555 280.904 42.8366 280.904H46.5268V279.725L48.3193 280.904C48.3193 280.904 57.8696 281.431 58.1951 280.904C59.4246 278.917 53.869 278.15 49.8034 276.578C45.7397 275.004 48.5433 259.573 48.5433 259.573L43.8783 265.55Z" fill="#FA968C"/>
<path d="M53.5458 230.815C52.8583 235.727 46.5119 273.994 44.932 273.388C43.5628 272.864 42.4693 234.272 43.1568 229.36C43.8443 224.448 46.7283 220.792 49.597 221.194C52.4657 221.596 54.2333 225.903 53.5458 230.815Z" fill="#FA968C"/>
<path d="M48.3221 267.543C50.555 256.187 53.1346 233.76 53.5463 230.817C54.2338 225.905 52.4662 221.598 49.5975 221.196C46.7288 220.794 43.8466 224.449 43.1572 229.361C42.7321 232.389 42.3682 255.726 42.9447 267.543H48.3221Z" fill="#004875"/>
<path d="M16.8596 258.755L12.9644 269.305C12.9644 269.305 11.1949 270.417 10.4729 271.467C10.0536 272.078 9.47904 272.886 9.07114 273.457C8.78388 273.859 8.83367 274.41 9.18604 274.757L11.0168 276.547C11.3673 276.888 11.9284 276.881 12.2654 276.526L12.7154 276.055L13.717 278.457C14.0655 279.292 14.8239 279.876 15.7182 279.996C18.0163 280.305 22.2581 280.797 22.4017 280.251C22.8498 278.541 16.5666 276.253 16.5666 276.253L15.9116 270.747L18.7459 263.937L16.8596 258.755Z" fill="#FAB9AF"/>
<path d="M35.0874 230.702C33.0785 235.237 16.4847 270.297 15.1327 269.282C13.9607 268.403 23.488 230.989 25.4969 226.455C27.5057 221.92 31.2803 219.193 33.9288 220.367C36.5753 221.539 37.0943 226.167 35.0874 230.702Z" fill="#FAB9AF"/>
<path d="M33.9299 220.366C31.2814 219.194 27.5069 221.919 25.498 226.454C24.1939 229.399 16.7616 251.847 14.1055 263.514L19.0175 265.086C24.3203 254.728 33.8686 233.459 35.0904 230.702C37.0954 226.167 36.5765 221.538 33.9299 220.366Z" fill="#0073AA"/>
<path d="M57.439 185.199C57.6018 192.361 55.1506 237.787 50.114 237.902C45.0794 238.017 39.3669 192.774 39.2041 185.612C39.0413 178.45 42.992 172.552 48.0266 172.439C53.0632 172.324 57.2762 178.036 57.439 185.199Z" fill="#004875"/>
<path d="M43.9103 183.77C44.0731 190.932 38.3663 232.019 33.3316 232.134C28.297 232.249 24.9285 191.221 24.7657 184.061C24.6029 176.899 29.4633 171.125 34.4998 171.01C39.5344 170.895 43.7494 176.608 43.9103 183.77Z" fill="#0073AA"/>
<path d="M30.1381 134.677L41.8734 133.066C51.4677 131.749 59.5434 140.2 57.7931 149.725L52.3889 179.129C51.2494 185.324 45.3377 189.451 39.1292 188.38L24.843 185.919L25.2088 171.773L22.2194 144.842C21.666 139.867 25.1801 135.359 30.1381 134.677Z" fill="#007D72"/>
<path d="M43.7398 134.297C43.7398 134.297 43.7398 137.591 41.6907 137.591C36.7537 137.591 35.4688 133.947 35.4688 133.947L37.0621 125.314L42.4241 125.978L43.7398 134.297Z" fill="#FA968C"/>
<path d="M48.9203 115.184C48.9203 123.912 41.8385 127.392 36.9552 127.392C32.0738 127.392 32.2232 118.652 32.2232 114.9C32.2232 111.149 36.1451 109.153 41.0266 109.153C45.9099 109.155 48.9203 111.432 48.9203 115.184Z" fill="#69280F"/>
<path d="M48.18 120.377C48.18 126.66 46.9659 129.751 43.7391 129.751C39.8075 129.751 34.8438 125.439 34.8438 120.262C34.8438 115.086 37.1322 112.093 41.0638 112.093C44.9953 112.093 48.18 115.199 48.18 120.377Z" fill="#FAB9AF"/>
<path d="M34.9785 118.234H44.9348C45.9842 118.234 46.9551 117.905 47.7575 117.35C46.7713 114.017 44.1515 112.093 41.0626 112.093C37.6787 112.091 35.5166 114.314 34.9785 118.234Z" fill="#FF9669"/>
<path d="M44.9342 117.268H33.4766V114.984C33.4766 112.257 35.6865 110.047 38.4135 110.047H49.9018V112.299C49.9018 115.043 47.6784 117.268 44.9342 117.268Z" fill="#69280F"/>
<path d="M36.752 121.168V115.469H39.2396V118.68C39.2396 120.055 38.1269 121.168 36.752 121.168Z" fill="#69280F"/>
<path d="M37.7011 120.065C37.7011 121.779 37.1611 123.168 35.7669 123.168C34.3728 123.168 33.4766 120.812 33.4766 119.098C33.4766 117.384 34.3728 116.963 35.7669 116.963C37.163 116.963 37.7011 118.353 37.7011 120.065Z" fill="#FAB9AF"/>
<path d="M43.0014 145.379C53.4537 144.598 69.0976 138.539 68.9023 136.047C68.6974 133.443 51.9676 132.874 41.8639 133.412C31.3983 133.969 23.2881 136.246 23.5696 140C23.8492 143.753 32.5492 146.16 43.0014 145.379Z" fill="#FA968C"/>
<path d="M39.7822 145.516C30.8217 145.634 23.8184 143.359 23.5676 140C23.288 136.249 31.3962 133.972 41.8619 133.413C42.8117 133.363 39.7822 145.516 39.7822 145.516Z" fill="#1C9585"/>
<path d="M69.2227 127.114C72.4457 124.383 87.6032 113.299 89.3803 115.397C91.1575 117.494 78.1888 131.704 74.8107 134.241C68.6041 138.904 63.2248 141.12 61.4476 139.021C59.6705 136.924 65.9997 129.844 69.2227 127.114Z" fill="#FA968C"/>
<path d="M49.8073 276.58C48.5453 276.092 47.9478 274.265 47.7218 271.98H43.9032L43.9128 274.876L42.2946 280.173C42.1835 280.537 42.4555 280.906 42.8366 280.906H46.5268V279.727L48.3193 280.906C48.3193 280.906 57.8696 281.433 58.1951 280.906C59.4265 278.919 53.871 278.153 49.8073 276.58Z" fill="#90D9EF"/>
<path d="M16.5704 276.252L15.9155 270.747L16.8941 268.395C15.6301 268.317 14.5558 267.966 13.6634 267.415L12.9644 269.307C12.9644 269.307 11.1949 270.419 10.4729 271.469C10.0536 272.08 9.47904 272.888 9.07114 273.458C8.78388 273.861 8.83367 274.412 9.18604 274.759L11.0168 276.549C11.3654 276.892 11.9284 276.882 12.2654 276.528L12.7154 276.057L13.717 278.459C14.0655 279.293 14.8239 279.878 15.7201 279.998C18.0182 280.307 22.26 280.799 22.4036 280.253C22.8536 278.539 16.5704 276.252 16.5704 276.252Z" fill="#90D9EF"/>
<path d="M49.813 276.582C49.2289 276.728 48.6104 276.828 47.9248 276.828C46.2013 276.828 44.8014 276.328 43.7156 275.521L42.2946 280.175C42.1835 280.539 42.4555 280.908 42.8366 280.908H46.5268V279.729L48.3193 280.908C48.3193 280.908 57.8696 281.435 58.1951 280.908C59.4265 278.919 53.8767 278.155 49.813 276.582Z" fill="#5A2D19"/>
<path d="M16.5704 276.253L16.3311 274.242C14.2245 273.446 12.8936 271.728 12.3344 269.738C11.7541 270.158 10.9173 270.824 10.4749 271.468C10.0555 272.078 9.48099 272.887 9.07309 273.457C8.78584 273.859 8.83563 274.411 9.188 274.758L11.0188 276.548C11.3673 276.891 11.9303 276.881 12.2674 276.527L12.7174 276.056L13.719 278.457C14.0675 279.292 14.8258 279.876 15.7221 279.997C18.0201 280.305 22.2619 280.798 22.4055 280.252C22.8537 278.54 16.5704 276.253 16.5704 276.253Z" fill="#5A2D19"/>
<path d="M90.2031 86.791L111.313 100.924C112.492 101.715 112.808 103.312 112.019 104.492L110.797 106.319C110.006 107.498 108.409 107.814 107.23 107.025L99.761 102.025C98.6465 101.28 97.1394 101.577 96.3944 102.692L91.0036 110.742" stroke="#90D9EF" stroke-width="1.91503" stroke-miterlimit="10" stroke-linecap="round"/>
<path d="M114.291 97.5412L94.373 84.2075L89.4011 91.6345L109.319 104.968L114.291 97.5412Z" fill="#FF640A"/>
<path d="M110.562 103.111L90.6445 89.7769L89.4013 91.634L109.319 104.968L110.562 103.111Z" fill="#CD5014"/>
<path d="M94.7217 105.183L89.4707 113.025" stroke="#965028" stroke-width="3.83007" stroke-miterlimit="10"/>
<path d="M92.5948 109.419C91.6967 109.892 88.6345 113.177 88.6345 113.177C87.4606 113.853 86.3614 114.58 86.3633 115.542C86.369 117.395 87.2155 117.658 88.4871 117.702C89.7586 117.746 93.3378 113.824 94.2111 113.027C95.4176 111.928 94.5501 110.126 94.3317 109.247C94.6554 108.981 93.491 108.948 92.5948 109.419Z" fill="#FA968C"/>
<path d="M90.2011 108.348C90.2011 108.348 89.483 108.289 88.943 108.348C88.4048 108.408 88.5829 110.74 88.5829 110.74L90.2011 108.348Z" fill="#FA968C"/>
</svg>
