<svg width="35" height="35" viewBox="0 0 35 35" fill="none" xmlns="http://www.w3.org/2000/svg">
<g clip-path="url(#clip0_115_323)">
<path d="M11.6367 34.9101C14.8484 34.9101 17.455 32.3035 17.455 29.0918V23.2734H11.6367C8.42497 23.2734 5.81836 25.8801 5.81836 29.0918C5.81836 32.3035 8.42497 34.9101 11.6367 34.9101Z" fill="#0ACF83"/>
<path d="M5.81836 17.4551C5.81836 14.2433 8.42497 11.6367 11.6367 11.6367H17.455V23.2734H11.6367C8.42497 23.2734 5.81836 20.6668 5.81836 17.4551Z" fill="#A259FF"/>
<path d="M5.81836 5.81834C5.81836 2.60661 8.42497 0 11.6367 0H17.455V11.6367H11.6367C8.42497 11.6367 5.81836 9.03006 5.81836 5.81834Z" fill="#F24E1E"/>
<path d="M17.4551 0H23.2734C26.4851 0 29.0917 2.60661 29.0917 5.81834C29.0917 9.03006 26.4851 11.6367 23.2734 11.6367H17.4551V0Z" fill="#FF7262"/>
<path d="M29.0917 17.4551C29.0917 20.6668 26.4851 23.2734 23.2734 23.2734C20.0617 23.2734 17.4551 20.6668 17.4551 17.4551C17.4551 14.2433 20.0617 11.6367 23.2734 11.6367C26.4851 11.6367 29.0917 14.2433 29.0917 17.4551Z" fill="#1ABCFE"/>
</g>
<defs>
<clipPath id="clip0_115_323">
<rect width="34.91" height="34.91" fill="white"/>
</clipPath>
</defs>
</svg>
