<svg width="132" height="132" viewBox="0 0 132 132" fill="none" xmlns="http://www.w3.org/2000/svg">
<g filter="url(#filter0_d_61_491)">
<rect x="18" y="14" width="90" height="90" rx="45" fill="white" shape-rendering="crispEdges"/>
<g clip-path="url(#clip0_61_491)">
<path d="M54 86C58.968 86 63 81.968 63 77V68H54C49.032 68 45 72.032 45 77C45 81.968 49.032 86 54 86Z" fill="#0ACF83"/>
<path d="M45 59C45 54.032 49.032 50 54 50H63V68H54C49.032 68 45 63.968 45 59Z" fill="#A259FF"/>
<path d="M45 41C45 36.032 49.032 32 54 32H63V50H54C49.032 50 45 45.968 45 41Z" fill="#F24E1E"/>
<path d="M63 32H72C76.968 32 81 36.032 81 41C81 45.968 76.968 50 72 50H63V32Z" fill="#FF7262"/>
<path d="M81 59C81 63.968 76.968 68 72 68C67.032 68 63 63.968 63 59C63 54.032 67.032 50 72 50C76.968 50 81 54.032 81 59Z" fill="#1ABCFE"/>
</g>
</g>
<defs>
<filter id="filter0_d_61_491" x="0.1" y="0.1" width="131.8" height="131.8" filterUnits="userSpaceOnUse" color-interpolation-filters="sRGB">
<feFlood flood-opacity="0" result="BackgroundImageFix"/>
<feColorMatrix in="SourceAlpha" type="matrix" values="0 0 0 0 0 0 0 0 0 0 0 0 0 0 0 0 0 0 127 0" result="hardAlpha"/>
<feOffset dx="3" dy="7"/>
<feGaussianBlur stdDeviation="10.45"/>
<feComposite in2="hardAlpha" operator="out"/>
<feColorMatrix type="matrix" values="0 0 0 0 0 0 0 0 0 0 0 0 0 0 0 0 0 0 0.2 0"/>
<feBlend mode="normal" in2="BackgroundImageFix" result="effect1_dropShadow_61_491"/>
<feBlend mode="normal" in="SourceGraphic" in2="effect1_dropShadow_61_491" result="shape"/>
</filter>
<clipPath id="clip0_61_491">
<rect width="54" height="54" fill="white" transform="translate(36 32)"/>
</clipPath>
</defs>
</svg>
