<svg width="91" height="91" viewBox="0 0 91 91" fill="none" xmlns="http://www.w3.org/2000/svg">
<path d="M51.0796 42.457C52.0289 43.5036 52.8807 44.8764 52.5205 45.2365C52.1602 45.5967 51.0505 44.9445 50.1986 44.0926C49.3468 43.2407 47.3218 52.2703 47.1223 52.7278C46.9762 53.0735 44.6153 55.7751 43.379 58.35C42.9653 59.2068 43.0285 61.7963 42.8728 61.9522C42.2497 62.5752 41.4659 62.507 39.7672 61.0029C38.0683 59.4988 37.1824 68.4505 39.2122 69.867C42.678 72.2862 49.6096 81.8999 58.7706 81.8999C69.3675 81.8999 79.176 70.8454 79.176 62.7359C79.176 54.6263 76.7957 51.55 76.9514 44.7498C77.0829 38.9962 81.2691 36.2459 81.2691 33.3691C81.2691 30.9498 77.6719 30.3608 76.4939 30.3608C74.4008 30.3608 69.0365 33.0429 69.0365 40.106C69.0365 42.8514 68.2529 45.3388 65.4393 45.3388C62.6258 45.3388 59.4862 41.4787 57.5926 38.4704" fill="#BE8D68"/>
<path d="M81.2636 33.3637C81.2636 32.0494 80.1977 31.2754 79.0391 30.8423C80.4313 35.4568 73.3684 35.6564 73.3684 51.3887C73.3684 67.1211 64.2122 71.6967 60.4154 72.4805C56.6235 73.2641 49.9353 73.493 44.8485 67.2476C43.286 65.3298 41.1686 63.2465 38.8126 61.2799C37.8148 62.9447 37.6054 68.747 39.2021 69.8665C42.6678 72.2857 49.5994 81.8994 58.7604 81.8994C69.3573 81.8994 79.1657 70.8449 79.1657 62.7354C79.1657 54.6258 76.7854 51.5493 76.9411 44.7492C77.0775 38.9908 81.2636 36.2405 81.2636 33.3637Z" fill="url(#paint0_linear_61_456)"/>
<path d="M39.7613 60.9986C38.0624 59.4945 34.0369 55.2109 31.4229 53.1177C28.8089 51.0246 26.5163 51.049 24.9488 53.3612C23.3815 55.6734 27.9571 59.7232 29.0037 60.7698C30.6052 62.3713 37.1814 68.4461 39.2064 69.8626" fill="url(#paint1_linear_61_456)"/>
<path d="M47.1241 52.7229C46.9293 53.1805 45.5907 53.4969 42.9378 50.6104C40.908 48.4053 35.4805 42.0626 32.2776 39.1859C29.0747 36.3091 26.5873 35.1311 24.4942 36.6352C22.4011 38.1393 23.5887 41.2741 25.9349 43.8978C28.8312 47.1349 32.1607 50.44 35.354 53.6088C37.851 56.0865 43.4976 61.329 42.8746 61.9472" fill="url(#paint2_linear_61_456)"/>
<path d="M57.5888 38.466C55.6904 35.4578 47.9069 25.7759 46.0134 23.0306C44.115 20.2852 41.5644 20.2852 39.7974 21.5265C38.0304 22.7677 37.5096 25.2552 41.4816 30.5366C43.9884 33.8709 46.0767 36.9328 51.0806 42.4575L56.9025 42.0536L57.5888 38.466Z" fill="url(#paint3_linear_61_456)"/>
<path d="M50.1933 44.0928C49.3414 43.2409 41.8208 34.3281 40.122 32.4152C36.9337 28.8325 32.8935 21.1659 28.0696 24.5831C25.5335 26.3792 26.9063 28.9835 27.6266 30.03C28.3471 31.0766 37.698 41.8682 38.6131 42.7833C39.5282 43.6985 47.3115 52.2656 47.1169 52.7231" fill="url(#paint4_linear_61_456)"/>
<path d="M35.348 53.6093C37.7039 55.9457 42.8588 60.7404 42.9123 61.7967C43.6571 60.6334 42.2941 57.1871 40.8581 55.975C32.549 48.9752 24.5222 37.6968 23.5 38.0327C23.0619 39.6731 24.1717 41.9268 25.929 43.8934C28.8252 47.1352 32.1548 50.4356 35.348 53.6093Z" fill="url(#paint5_linear_61_456)"/>
<path d="M51.0806 42.4571C51.991 43.4647 52.8087 44.7693 52.5507 45.1879C55.5833 42.7492 49.1677 35.5791 45.5316 31.2712C42.718 27.9368 41.9538 23.7019 39.9386 21.4287C39.8899 21.4579 39.8412 21.492 39.7974 21.5261C38.0304 22.7673 37.5096 25.2547 41.4816 30.5361C43.9884 33.8657 46.0767 36.9323 51.0806 42.4571Z" fill="url(#paint6_linear_61_456)"/>
<path d="M38.6183 42.7826C39.5334 43.6977 47.3169 52.2649 47.1222 52.7224C49.5268 49.4854 40.2052 39.9691 35.6929 35.1599C31.7792 30.9931 31.1075 27.3423 27.2912 25.293C25.8699 27.0064 26.9992 29.1142 27.632 30.0244C28.3475 31.0758 37.7032 41.8675 38.6183 42.7826Z" fill="url(#paint7_linear_61_456)"/>
<path d="M46.9469 52.9184C46.6744 53.0839 46.1145 53.1034 45.248 52.5972C45.8906 53.1228 46.4893 53.3175 46.9469 52.9184Z" fill="url(#paint8_linear_61_456)"/>
<path d="M30.1497 70.091C30.0913 70.091 30.0329 70.0812 29.9793 70.0666C24.0116 68.246 17.5424 61.7185 16.1405 56.1012C16.0626 55.7847 16.2524 55.4684 16.5689 55.3856C16.8852 55.3078 17.2017 55.4976 17.2844 55.814C18.5792 60.9932 24.7953 67.2482 30.3249 68.9373C30.6365 69.0347 30.8118 69.3608 30.7144 69.6722C30.6365 69.9255 30.4028 70.091 30.1497 70.091Z" fill="#955500"/>
<path d="M32.9962 77.4992C32.9523 77.4992 32.9085 77.4944 32.8598 77.4846C27.9192 76.3359 22.1802 72.6462 17.1081 67.3599C12.3669 62.4191 9.30026 57.1621 9.10068 53.6426C9.08121 53.3165 9.32945 53.0391 9.6556 53.0196C9.97686 53.0002 10.2592 53.2484 10.2787 53.5745C10.4588 56.7775 13.4718 61.869 17.9598 66.5421C22.8762 71.6677 28.4011 75.2358 33.1276 76.3359C33.444 76.4089 33.6436 76.7252 33.5656 77.0417C33.5024 77.3142 33.2639 77.4992 32.9962 77.4992Z" fill="#955500"/>
<path d="M58.3091 25.9748C58.0462 25.9748 57.8077 25.7995 57.7396 25.5366C56.912 22.3921 53.1494 17.8847 49.7225 16.9939C49.4061 16.9111 49.2212 16.5899 49.299 16.2783C49.3818 15.962 49.703 15.7721 50.0146 15.8548C53.8747 16.8527 57.9441 21.7156 58.8738 25.2349C58.9566 25.5513 58.7715 25.8725 58.4552 25.9552C58.4065 25.965 58.3578 25.9748 58.3091 25.9748Z" fill="#955500"/>
<path d="M65.7304 27.0215C65.4676 27.0215 65.229 26.8463 65.1609 26.5786C62.951 17.8898 54.7051 11.1139 49.9932 10.267C49.6719 10.2086 49.4626 9.90188 49.5162 9.58549C49.5745 9.26422 49.8812 9.0549 50.1976 9.10844C55.333 10.0333 63.9391 17.0136 66.2951 26.2865C66.373 26.6029 66.1831 26.9242 65.8716 27.0021C65.8278 27.0119 65.7742 27.0215 65.7304 27.0215Z" fill="#955500"/>
<path d="M77.0501 31.3348C79.0458 30.9747 79.4012 31.2034 79.0411 30.8383C78.0675 30.4733 77.0258 30.3516 76.4903 30.3516C74.3972 30.3516 69.033 33.0337 69.033 40.0968C69.033 42.8421 68.2494 45.3295 65.4358 45.3295C64.326 45.3295 63.1675 44.7307 62.0527 43.8156C66.9886 49.2821 70.8632 44.132 71.4522 40.6029C72.0412 37.0787 71.1895 32.3911 77.0501 31.3348Z" fill="url(#paint9_radial_61_456)"/>
<path d="M39.1933 22.0615C37.9715 23.4439 38.0105 25.9216 41.4811 30.5362C43.988 33.8706 46.0763 36.9323 51.0803 42.4571C52.0294 43.5037 52.8813 44.8764 52.521 45.2366C53.3583 39.5123 45.2146 33.89 42.5667 29.5723C40.4639 26.1504 40.0452 24.1352 39.1933 22.0615Z" fill="url(#paint10_linear_61_456)"/>
<path d="M38.6176 42.7834C39.5327 43.6986 47.3162 52.2656 47.1216 52.7231C48.8398 51.4966 47.6667 49.5884 45.0138 46.9355C39.5717 41.4934 32.0025 34.187 28.9553 28.1658C28.6681 27.5962 28.1327 27.1776 27.4999 27.0948C25.8546 26.8806 27.0764 29.2268 27.6264 30.0251C28.3469 31.0766 37.7025 41.8683 38.6176 42.7834Z" fill="url(#paint11_linear_61_456)"/>
<path d="M25.9294 43.8929C28.8257 47.1298 32.1552 50.4351 35.3483 53.6039C37.8455 56.0815 43.4921 61.324 42.8689 61.9422C46.3688 58.9973 30.1107 48.3468 23.5004 38.0322C23.0672 39.6726 24.1722 41.9312 25.9294 43.8929Z" fill="url(#paint12_linear_61_456)"/>
<path d="M42.1529 62.5364C42.4839 62.405 42.6591 62.2492 42.7127 62.0836C42.114 62.5462 41.3254 62.3807 39.7629 60.9981C38.0641 59.494 34.0384 55.2105 31.4246 53.1174C30.2757 52.1974 29.1902 51.6863 28.1973 51.5986C29.6137 52.4846 28.9565 52.8059 32.1108 55.2251C33.7999 56.5199 39.9917 63.3882 42.1529 62.5364Z" fill="url(#paint13_radial_61_456)"/>
<path d="M38.0302 46.8378C40.3277 49.6319 44.8059 54.2513 46.8212 52.976C46.2663 53.1657 45.0007 52.8591 42.9368 50.6151C40.9069 48.4101 35.4795 42.0675 32.2766 39.1906C29.6821 36.859 27.5597 35.647 25.7344 36.0656C31.045 37.8082 35.8591 44.1946 38.0302 46.8378Z" fill="url(#paint14_radial_61_456)"/>
<path d="M40.5184 34.8052C44.1837 38.7918 49.621 46.697 52.381 45.3146C51.9283 45.4558 50.9596 44.8521 50.2002 44.0927C49.3485 43.2409 41.8279 34.3282 40.129 32.4151C37.9191 29.9326 35.3002 25.4933 32.2969 24.1353C35.3246 26.5204 37.5492 31.573 40.5184 34.8052Z" fill="url(#paint15_radial_61_456)"/>
<path d="M62.0527 43.8249C60.3393 42.423 58.7378 40.2909 57.5842 38.4655C55.6857 35.4573 47.9023 25.7755 46.0088 23.0301C45.4296 22.1928 44.7919 21.6136 44.1348 21.2437C45.0207 22.5092 45.5172 24.32 47.5129 26.564C50.7159 30.1612 54.9021 36.6353 56.3429 38.8598C57.7837 41.0843 60.1056 45.7719 62.0527 43.8249Z" fill="url(#paint16_linear_61_456)"/>
<path d="M72.546 75.7419C71.3534 72.8456 69.6157 71.0835 67.104 72.7386C60.2454 77.2558 52.3548 75.7273 42.4686 67.7346C33.6483 60.6034 29.0872 55.502 24.794 53.6572C23.7669 56.0034 28.0066 59.7662 29.0094 60.7689C30.6109 62.3704 37.1871 68.4453 39.2121 69.8617C42.6779 72.2809 49.6094 81.8946 58.7704 81.8946C63.8766 81.8946 68.8076 79.3197 72.546 75.7419Z" fill="url(#paint17_linear_61_456)"/>
<path d="M76.9479 44.7448C77.0793 38.9912 81.2655 36.241 81.2655 33.3641C81.2655 32.5171 80.8225 31.8941 80.1994 31.4414C80.9637 33.6806 79.1431 35.6714 76.4221 39.0545C73.4771 42.7149 72.8249 48.4102 74.8548 54.1005C76.8845 59.7909 74.3339 67.6376 70.2109 70.1249C66.088 72.6123 60.6167 83.5354 44.9379 71.191C44.9331 71.1861 44.933 71.1861 44.9282 71.1812C43.9692 70.2904 43.0249 69.5067 42.066 68.9129C35.4458 64.8094 31.6734 61.1246 28.821 58.0239C28.2612 57.4154 26.7522 55.0789 24.9609 55.8432C25.8566 57.8729 28.2758 60.044 29.0011 60.7692C30.6026 62.3707 37.1788 68.4456 39.2038 69.8621C39.4666 70.047 39.7538 70.2759 40.0556 70.5339C40.1335 70.602 40.2163 70.6701 40.2941 70.7432C40.3135 70.7626 40.3379 70.7821 40.3575 70.8015C40.4109 70.8453 40.4596 70.894 40.5132 70.9427C40.5228 70.9525 40.5375 70.9621 40.5473 70.9768C42.6063 72.846 45.4392 75.937 48.91 78.3562C48.91 78.3562 48.9148 78.3562 48.9148 78.3611C49.2214 78.5753 49.5281 78.7797 49.8445 78.9792C49.8494 78.9841 49.8542 78.9841 49.8591 78.989C50.1707 79.1885 50.487 79.3784 50.8084 79.5633C50.8132 79.5633 50.8132 79.5682 50.818 79.5682C53.2178 80.9459 55.8805 81.8999 58.7573 81.8999C69.3543 81.8999 79.1626 70.8453 79.1626 62.7359C79.1626 54.6263 76.792 51.545 76.9479 44.7448Z" fill="url(#paint18_radial_61_456)"/>
<defs>
<linearGradient id="paint0_linear_61_456" x1="80.2949" y1="75.1757" x2="61.9808" y2="53.3295" gradientUnits="userSpaceOnUse">
<stop offset="0.00132565" stop-color="#BE8D68"/>
<stop offset="1" stop-color="#CD9870"/>
</linearGradient>
<linearGradient id="paint1_linear_61_456" x1="26.8061" y1="55.2209" x2="37.5984" y2="63.1679" gradientUnits="userSpaceOnUse">
<stop offset="0.00132565" stop-color="#BE8D68"/>
<stop offset="1" stop-color="#CD9870"/>
</linearGradient>
<linearGradient id="paint2_linear_61_456" x1="22.8794" y1="34.1862" x2="41.8148" y2="54.0047" gradientUnits="userSpaceOnUse">
<stop offset="0.00132565" stop-color="#BE8D68"/>
<stop offset="1" stop-color="#CD9870"/>
</linearGradient>
<linearGradient id="paint3_linear_61_456" x1="43.331" y1="24.8365" x2="54.3194" y2="42.1041" gradientUnits="userSpaceOnUse">
<stop offset="0.00132565" stop-color="#BE8D68"/>
<stop offset="1" stop-color="#CD9870"/>
</linearGradient>
<linearGradient id="paint4_linear_61_456" x1="31.9865" y1="27.7047" x2="46.8994" y2="47.8502" gradientUnits="userSpaceOnUse">
<stop offset="0.00132565" stop-color="#BE8D68"/>
<stop offset="1" stop-color="#CD9870"/>
</linearGradient>
<linearGradient id="paint5_linear_61_456" x1="37.4145" y1="45.9554" x2="31.155" y2="51.852" gradientUnits="userSpaceOnUse">
<stop stop-color="#BE8D68" stop-opacity="0"/>
<stop offset="1" stop-color="#B37E53"/>
</linearGradient>
<linearGradient id="paint6_linear_61_456" x1="49.7239" y1="30.1355" x2="40.3053" y2="38.6385" gradientUnits="userSpaceOnUse">
<stop stop-color="#BE8D68" stop-opacity="0"/>
<stop offset="1" stop-color="#B37E53"/>
</linearGradient>
<linearGradient id="paint7_linear_61_456" x1="41.0591" y1="36.1927" x2="28.1085" y2="45.6605" gradientUnits="userSpaceOnUse">
<stop stop-color="#BE8D68" stop-opacity="0"/>
<stop offset="1" stop-color="#B37E53"/>
</linearGradient>
<linearGradient id="paint8_linear_61_456" x1="50.7066" y1="49.3904" x2="37.7558" y2="58.8582" gradientUnits="userSpaceOnUse">
<stop stop-color="#BE8D68" stop-opacity="0"/>
<stop offset="1" stop-color="#B37E53"/>
</linearGradient>
<radialGradient id="paint9_radial_61_456" cx="0" cy="0" r="1" gradientUnits="userSpaceOnUse" gradientTransform="translate(67.6963 34.0191) scale(15.5469 15.5469)">
<stop stop-color="#B37E53" stop-opacity="0"/>
<stop offset="1" stop-color="#B37E53"/>
</radialGradient>
<linearGradient id="paint10_linear_61_456" x1="51.4471" y1="28.4656" x2="43.402" y2="35.9222" gradientUnits="userSpaceOnUse">
<stop offset="0.3072" stop-color="#B37E53" stop-opacity="0"/>
<stop offset="1" stop-color="#B37E53"/>
</linearGradient>
<linearGradient id="paint11_linear_61_456" x1="45.2853" y1="32.5073" x2="34.6893" y2="42.0567" gradientUnits="userSpaceOnUse">
<stop offset="0.3072" stop-color="#B37E53" stop-opacity="0"/>
<stop offset="1" stop-color="#B37E53"/>
</linearGradient>
<linearGradient id="paint12_linear_61_456" x1="41.7061" y1="42.8357" x2="28.6246" y2="53.8241" gradientUnits="userSpaceOnUse">
<stop offset="0.3072" stop-color="#B37E53" stop-opacity="0"/>
<stop offset="1" stop-color="#B37E53"/>
</linearGradient>
<radialGradient id="paint13_radial_61_456" cx="0" cy="0" r="1" gradientUnits="userSpaceOnUse" gradientTransform="translate(35.4538 57.1041) scale(6.44063 6.44063)">
<stop stop-color="#B37E53" stop-opacity="0"/>
<stop offset="1" stop-color="#B37E53"/>
</radialGradient>
<radialGradient id="paint14_radial_61_456" cx="0" cy="0" r="1" gradientUnits="userSpaceOnUse" gradientTransform="translate(36.2735 44.5858) scale(9.62493 9.62493)">
<stop stop-color="#B37E53" stop-opacity="0"/>
<stop offset="1" stop-color="#B37E53"/>
</radialGradient>
<radialGradient id="paint15_radial_61_456" cx="0" cy="0" r="1" gradientUnits="userSpaceOnUse" gradientTransform="translate(42.3351 34.8044) scale(10.3612 10.3612)">
<stop stop-color="#B37E53" stop-opacity="0"/>
<stop offset="1" stop-color="#B37E53"/>
</radialGradient>
<linearGradient id="paint16_linear_61_456" x1="53.4148" y1="30.8262" x2="47.2665" y2="63.6607" gradientUnits="userSpaceOnUse">
<stop offset="0.3118" stop-color="#DEBA94" stop-opacity="0"/>
<stop offset="1" stop-color="#D2A374"/>
</linearGradient>
<linearGradient id="paint17_linear_61_456" x1="45.9484" y1="67.2016" x2="39.2768" y2="73.3335" gradientUnits="userSpaceOnUse">
<stop offset="0.3118" stop-color="#B37E53" stop-opacity="0"/>
<stop offset="1" stop-color="#B37E53"/>
</linearGradient>
<radialGradient id="paint18_radial_61_456" cx="0" cy="0" r="1" gradientUnits="userSpaceOnUse" gradientTransform="translate(51.7122 51.8231) rotate(48.1444) scale(45.0513 40.9007)">
<stop offset="0.6147" stop-color="#B37E53" stop-opacity="0"/>
<stop offset="1" stop-color="#B37E53"/>
</radialGradient>
</defs>
</svg>
