<svg width="36" height="35" viewBox="0 0 36 35" fill="none" xmlns="http://www.w3.org/2000/svg">
<g clip-path="url(#clip0_115_333)">
<path d="M29.1147 0H6.56875C3.15451 0 0.386719 2.83878 0.386719 6.34059V28.5694C0.386719 32.0712 3.15451 34.91 6.56875 34.91H29.1147C32.5289 34.91 35.2967 32.0712 35.2967 28.5694V6.34059C35.2967 2.83878 32.5289 0 29.1147 0Z" fill="#330000"/>
<path d="M17.3035 20.9501H11.8934L10.7931 24.4568C10.7786 24.521 10.7424 24.5779 10.691 24.6175C10.6395 24.6571 10.5761 24.6768 10.5119 24.6731H7.77209C7.61556 24.6731 7.56095 24.5849 7.60828 24.4085L12.2921 10.5708C12.3376 10.4265 12.3844 10.2632 12.4327 10.0807C12.4935 9.76005 12.5248 9.43425 12.5262 9.10759C12.5234 9.08827 12.5244 9.06857 12.529 9.04964C12.5337 9.0307 12.542 9.01291 12.5534 8.99728C12.5649 8.98166 12.5792 8.96851 12.5956 8.95861C12.612 8.9487 12.6302 8.94223 12.6491 8.93957C12.6626 8.93746 12.6764 8.93746 12.69 8.93957H16.4134C16.5226 8.93957 16.5847 8.97948 16.6011 9.05929L21.917 24.4323C21.9641 24.5919 21.917 24.6724 21.7764 24.6724H18.7321C18.6798 24.6783 18.6272 24.6646 18.5842 24.6337C18.5411 24.6027 18.5104 24.5568 18.498 24.5044L17.3035 20.9501ZM12.7371 17.9216H16.4366C16.3433 17.6009 16.2341 17.2406 16.109 16.8406C15.9839 16.4407 15.8512 16.0122 15.7111 15.5553L15.2892 14.1866C15.1486 13.7302 15.0198 13.2896 14.9029 12.8649C14.7859 12.4402 14.6797 12.0528 14.5841 11.7028H14.5609C14.429 12.3513 14.2648 12.9925 14.0688 13.6238C13.8504 14.3449 13.6279 15.0816 13.4012 15.8339C13.1746 16.5863 12.9532 17.2822 12.7371 17.9216Z" fill="#FF9A00"/>
<path d="M25.0779 11.4869C24.8391 11.4967 24.6009 11.4547 24.379 11.3636C24.157 11.2725 23.9563 11.1344 23.7899 10.9584C23.624 10.7747 23.4952 10.5591 23.4108 10.3241C23.3265 10.0891 23.2883 9.83925 23.2985 9.58903C23.2904 9.34181 23.3331 9.09559 23.4239 8.86642C23.5147 8.63725 23.6515 8.43025 23.8254 8.25889C23.9977 8.0893 24.201 7.95634 24.4235 7.86767C24.6461 7.779 24.8836 7.73637 25.1223 7.74223C25.6843 7.74223 26.1252 7.91445 26.4451 8.25889C26.7697 8.62 26.9415 9.09829 26.9229 9.58903C26.9328 9.84026 26.8933 10.091 26.8067 10.3262C26.7202 10.5615 26.5884 10.7764 26.4192 10.9584C26.2431 11.1364 26.0331 11.2752 25.8023 11.3662C25.5715 11.4571 25.3249 11.4982 25.0779 11.4869ZM23.4623 24.4328V12.9515C23.4623 12.8073 23.5244 12.7352 23.6493 12.7352H26.5291C26.6533 12.7352 26.7161 12.8052 26.7161 12.9515V24.4328C26.7161 24.5924 26.654 24.6729 26.5291 24.6729H23.6732C23.5326 24.6736 23.4623 24.5931 23.4623 24.4328Z" fill="#FF9A00"/>
</g>
<defs>
<clipPath id="clip0_115_333">
<rect width="34.91" height="34.91" fill="white" transform="translate(0.386719)"/>
</clipPath>
</defs>
</svg>
