<svg width="132" height="132" viewBox="0 0 132 132" fill="none" xmlns="http://www.w3.org/2000/svg">
<g filter="url(#filter0_d_66_3421)">
<rect x="18" y="14" width="90" height="90" rx="45" fill="white" shape-rendering="crispEdges"/>
<g clip-path="url(#clip0_66_3421)">
<path d="M80.4379 32H45.5621C40.2811 32 36 36.3908 36 41.8072V76.1928C36 81.6092 40.2811 86 45.5621 86H80.4379C85.7189 86 90 81.6092 90 76.1928V41.8072C90 36.3908 85.7189 32 80.4379 32Z" fill="#001E36"/>
<path d="M48.1602 69.8685V46.1266C48.1602 45.9545 48.2319 45.8668 48.3775 45.8668C48.7627 45.8668 49.1162 45.8668 49.6437 45.8484C50.1713 45.83 50.7485 45.8236 51.3647 45.8116L53.3211 45.7738C54.009 45.7615 54.691 45.7554 55.367 45.7554C57.2024 45.7554 58.75 45.9906 60.0099 46.461C61.1425 46.8548 62.1755 47.5021 63.034 48.356C63.762 49.0965 64.3244 49.9905 64.6822 50.976C65.0207 51.9357 65.1918 52.949 65.1876 53.9695C65.1876 55.9521 64.7409 57.587 63.8476 58.8742C62.9479 60.1668 61.6837 61.1458 60.2251 61.6793C58.7035 62.2615 57.0121 62.4585 55.1528 62.4585C54.6253 62.4585 54.2475 62.4531 54.0301 62.4401C53.8128 62.4271 53.4867 62.4217 53.052 62.4217V69.8339C53.0575 69.8724 53.0555 69.9116 53.0462 69.9492C53.0368 69.9869 53.0203 70.0223 52.9975 70.0534C52.9748 70.0845 52.9462 70.1107 52.9136 70.1304C52.8809 70.1501 52.8447 70.163 52.8072 70.1683C52.7803 70.1726 52.7528 70.1726 52.7259 70.1683H48.4134C48.2404 70.1651 48.1602 70.0666 48.1602 69.8685ZM53.052 50.3256V58.069C53.3657 58.0942 53.6555 58.1065 53.9215 58.1058H55.117C55.9967 58.1027 56.8706 57.9596 57.7074 57.6815C58.4248 57.4639 59.0662 57.0394 59.5551 56.4586C60.0257 55.8894 60.261 55.0957 60.261 54.0777C60.2792 53.3589 60.0961 52.6498 59.7334 52.0345C59.3532 51.4393 58.8035 50.9787 58.1591 50.7152C57.319 50.3806 56.4219 50.2227 55.5211 50.251C54.9408 50.251 54.4276 50.2571 53.9816 50.2693C53.5356 50.2816 53.2275 50.3004 53.0573 50.3256H53.052Z" fill="#31A8FF"/>
<path d="M79.193 56.6608C78.5122 56.3017 77.787 56.0392 77.0372 55.8805C76.2114 55.6859 75.367 55.5861 74.5196 55.5829C74.0613 55.5704 73.6038 55.6269 73.1615 55.7507C72.8797 55.8147 72.6292 55.9792 72.4546 56.2149C72.3366 56.4035 72.2739 56.6229 72.2741 56.847C72.2805 57.0642 72.357 57.2732 72.4915 57.4411C72.703 57.695 72.9616 57.9033 73.2523 58.0536C73.7685 58.3379 74.3005 58.5909 74.8456 58.8112C76.0614 59.2289 77.2233 59.7965 78.3056 60.5016C79.0422 60.9793 79.6519 61.6367 80.0804 62.415C80.4414 63.1532 80.6225 63.9702 80.608 64.7959C80.6294 65.8849 80.326 66.9546 79.7385 67.8619C79.1091 68.7822 78.2352 69.4978 77.2208 69.9235C76.1192 70.4199 74.7594 70.6681 73.1415 70.6681C72.1142 70.6779 71.0887 70.5782 70.0815 70.3705C69.2877 70.2212 68.515 69.9715 67.7812 69.627C67.7018 69.5852 67.6357 69.5211 67.5906 69.4421C67.5456 69.3631 67.5235 69.2726 67.5269 69.1811V65.1693C67.5223 65.13 67.5283 65.0901 67.5443 65.054C67.5603 65.0179 67.5857 64.9871 67.6176 64.9648C67.6487 64.9466 67.6845 64.9386 67.7202 64.9419C67.7558 64.9451 67.7896 64.9596 67.8171 64.9832C68.6845 65.5077 69.6265 65.89 70.6091 66.1163C71.4745 66.339 72.3622 66.4574 73.2544 66.4691C74.0986 66.4691 74.7204 66.3576 75.12 66.1347C75.2998 66.0502 75.452 65.914 75.558 65.7427C75.664 65.5714 75.7193 65.3722 75.7172 65.1693C75.7172 64.8468 75.5361 64.5369 75.1738 64.2397C74.8115 63.9424 74.0743 63.5853 72.9621 63.1683C71.8247 62.7623 70.7463 62.1998 69.7565 61.4962C69.0486 60.9918 68.4654 60.3248 68.0534 59.5482C67.6964 58.8163 67.5155 58.0073 67.5258 57.1889C67.5227 56.2031 67.7865 55.2358 68.2877 54.3946C68.8571 53.4705 69.675 52.7349 70.6428 52.2767C71.705 51.732 73.0332 51.4596 74.6272 51.4596C75.5609 51.4516 76.4938 51.5196 77.4171 51.6631C78.0854 51.7512 78.7387 51.9333 79.3586 52.2042C79.4078 52.2187 79.4531 52.2447 79.4908 52.2802C79.5285 52.3157 79.5577 52.3597 79.576 52.4087C79.6005 52.4993 79.6126 52.5929 79.6119 52.6869V56.44C79.6148 56.4834 79.6066 56.5268 79.5881 56.5659C79.5696 56.6051 79.5414 56.6385 79.5064 56.663C79.4575 56.6875 79.4038 56.7001 79.3494 56.6997C79.295 56.6993 79.2415 56.686 79.193 56.6608Z" fill="#31A8FF"/>
</g>
</g>
<defs>
<filter id="filter0_d_66_3421" x="0.1" y="0.1" width="131.8" height="131.8" filterUnits="userSpaceOnUse" color-interpolation-filters="sRGB">
<feFlood flood-opacity="0" result="BackgroundImageFix"/>
<feColorMatrix in="SourceAlpha" type="matrix" values="0 0 0 0 0 0 0 0 0 0 0 0 0 0 0 0 0 0 127 0" result="hardAlpha"/>
<feOffset dx="3" dy="7"/>
<feGaussianBlur stdDeviation="10.45"/>
<feComposite in2="hardAlpha" operator="out"/>
<feColorMatrix type="matrix" values="0 0 0 0 0 0 0 0 0 0 0 0 0 0 0 0 0 0 0.2 0"/>
<feBlend mode="normal" in2="BackgroundImageFix" result="effect1_dropShadow_66_3421"/>
<feBlend mode="normal" in="SourceGraphic" in2="effect1_dropShadow_66_3421" result="shape"/>
</filter>
<clipPath id="clip0_66_3421">
<rect width="54" height="54" fill="white" transform="translate(36 32)"/>
</clipPath>
</defs>
</svg>
